<svg xmlns="http://www.w3.org/2000/svg" width="1960" height="2118" viewBox="0 0 1960 2118" font-family="Arial, sans-serif">
<defs>
  <!-- Sequence flow: filled triangle (OMG spec Fig 10.43) -->
  <marker id="seq-end" viewBox="0 0 20 20" refX="11" refY="10"
    markerWidth="10" markerHeight="10" orient="auto">
    <path d="M 1 5 L 11 10 L 1 15 Z" fill="#000000" stroke="#000000" stroke-width="1"/>
  </marker>
  <!-- Default flow: diagonal slash at source (OMG spec Fig 10.47) -->
  <marker id="seq-default-src" viewBox="0 0 20 20" refX="6" refY="10"
    markerWidth="10" markerHeight="10" orient="auto">
    <path d="M 6 3 L 10 17" stroke="#000000" stroke-width="1.5"/>
  </marker>
  <!-- Conditional flow: open diamond at source (OMG spec Fig 10.48) -->
  <marker id="seq-conditional-src" viewBox="0 0 20 20" refX="1" refY="10"
    markerWidth="12" markerHeight="12" orient="auto">
    <path d="M 1 10 L 8 6 L 15 10 L 8 14 Z" fill="#ffffff" stroke="#000000" stroke-width="1"/>
  </marker>
  <!-- Message flow: open circle at source (OMG spec Fig 9.5) -->
  <marker id="msg-start" viewBox="0 0 20 20" refX="6" refY="6"
    markerWidth="20" markerHeight="20" orient="auto">
    <circle cx="6" cy="6" r="3.5" fill="#ffffff" stroke="#000000" stroke-width="1"/>
  </marker>
  <!-- Message flow: open arrowhead at target -->
  <marker id="msg-end" viewBox="0 0 20 20" refX="8.5" refY="5"
    markerWidth="20" markerHeight="20" orient="auto">
    <path d="m 1 5 l 0 -3 l 7 3 l -7 3 z" fill="#ffffff" stroke="#000000" stroke-width="1" stroke-linecap="butt"/>
  </marker>
  <!-- Association: open chevron -->
  <marker id="assoc-end" viewBox="0 0 20 20" refX="11" refY="10"
    markerWidth="10" markerHeight="10" orient="auto">
    <path d="M 1 5 L 11 10 L 1 15" fill="none" stroke="#000000" stroke-width="1.5"/>
  </marker>
</defs>
<rect width="1960" height="2118" fill="#fafafa"/>
<rect x="50" y="1808" width="1860" height="60" fill="#ffffff" stroke="#000000" stroke-width="1.5"/>
<text x="980" y="1838" text-anchor="middle" dominant-baseline="middle" font-size="12" font-weight="bold" fill="#000000">Claude API — LLM Provider (Anthropic)</text>
<rect x="50" y="1908" width="1860" height="60" fill="#ffffff" stroke="#000000" stroke-width="1.5"/>
<text x="980" y="1938" text-anchor="middle" dominant-baseline="middle" font-size="12" font-weight="bold" fill="#000000">ElkJS — Sugiyama Layout Engine (Eclipse)</text>
<rect x="50" y="2008" width="1860" height="60" fill="#ffffff" stroke="#000000" stroke-width="1.5"/>
<text x="980" y="2038" text-anchor="middle" dominant-baseline="middle" font-size="12" font-weight="bold" fill="#000000">bpmn-moddle — CMOF Metamodell (bpmn.io)</text>
<rect x="90" y="50" width="1820" height="286" fill="#ffffff" fill-opacity="0.25" stroke="#000000" stroke-width="1.5"/>
<rect x="50" y="50" width="40" height="286" fill="#f0f0f0" stroke="#000000" stroke-width="1.5"/>
<text x="70" y="193" text-anchor="middle" dominant-baseline="middle" font-size="11" fill="#000000" transform="rotate(-90,70,193)">Prozessverantwortlicher</text>
<rect x="90" y="882" width="1820" height="451" fill="#ffffff" fill-opacity="0.25" stroke="#000000" stroke-width="1.5"/>
<rect x="50" y="882" width="40" height="451" fill="#f0f0f0" stroke="#000000" stroke-width="1.5"/>
<text x="70" y="1107.5" text-anchor="middle" dominant-baseline="middle" font-size="11" fill="#000000" transform="rotate(-90,70,1107.5)">Orchestrator (orchestrator.js)</text>
<rect x="90" y="1335" width="1820" height="266" fill="#ffffff" fill-opacity="0.25" stroke="#000000" stroke-width="1.5"/>
<rect x="50" y="1335" width="40" height="266" fill="#f0f0f0" stroke="#000000" stroke-width="1.5"/>
<text x="70" y="1468" text-anchor="middle" dominant-baseline="middle" font-size="11" fill="#000000" transform="rotate(-90,70,1468)">Agents — Modeler + Reviewer (modeler.js, rules.js)</text>
<rect x="90" y="371" width="1820" height="509" fill="#ffffff" fill-opacity="0.25" stroke="#000000" stroke-width="1.5"/>
<rect x="50" y="371" width="40" height="509" fill="#f0f0f0" stroke="#000000" stroke-width="1.5"/>
<text x="70" y="625.5" text-anchor="middle" dominant-baseline="middle" font-size="11" fill="#000000" transform="rotate(-90,70,625.5)">Pipeline — Layout + Rendering (topology → ELK → coordinates → bpmn-xml → svg)</text>
<rect x="90" y="1603" width="1820" height="165" fill="#ffffff" fill-opacity="0.25" stroke="#000000" stroke-width="1.5"/>
<rect x="50" y="1603" width="40" height="165" fill="#f0f0f0" stroke="#000000" stroke-width="1.5"/>
<text x="70" y="1685.5" text-anchor="middle" dominant-baseline="middle" font-size="11" fill="#000000" transform="rotate(-90,70,1685.5)">Compliance Agent (compliance.js)</text>
<path d="M 150.4 241 L 236 241" stroke="#000000" stroke-width="1.5" fill="none"  marker-end="url(#seq-end)"/>
<path d="M 336 241 L 376 241 L 376 204 L 416 204" stroke="#000000" stroke-width="1.5" fill="none"  marker-end="url(#seq-end)"/>
<path d="M 516 204 L 609 204" stroke="#000000" stroke-width="1.5" fill="none"  marker-end="url(#seq-end)"/>
<path d="M 646 191 L 716 191 L 716 98 L 786 98" stroke="#000000" stroke-width="1.5" fill="none"  marker-end="url(#seq-end)"/>
<rect x="670.5" y="178" width="21" height="16" rx="2" fill="white" fill-opacity="0.9"/>
<text x="681" y="190" text-anchor="middle" font-size="10" fill="#000000">Ja</text>
<path d="M 646 191 L 726 191 L 726 241 L 806 241" stroke="#000000" stroke-width="1.5" fill="none"  marker-end="url(#seq-end)"/>
<rect x="669" y="178" width="34" height="16" rx="2" fill="white" fill-opacity="0.9"/>
<text x="686" y="190" text-anchor="middle" font-size="10" fill="#000000">Nein</text>
<path d="M 806 254 L 336 254" stroke="#000000" stroke-width="1.5" fill="none"  marker-end="url(#seq-end)"/>
<path d="M 250 1088 L 330 1088" stroke="#000000" stroke-width="1.5" fill="none"  marker-end="url(#seq-end)"/>
<path d="M 355 1113 L 355 1289.5 L 590 1289.5 L 590 1466" stroke="#000000" stroke-width="1.5" fill="none"  marker-end="url(#seq-end)"/>
<rect x="416.5" y="1276.5" width="112" height="16" rx="2" fill="white" fill-opacity="0.9"/>
<text x="472.5" y="1288.5" text-anchor="middle" font-size="10" fill="#000000">Natürlicher Text</text>
<path d="M 380 1088 L 550 1088 L 550 1463 L 720 1463" stroke="#000000" stroke-width="1.5" fill="none" marker-start="url(#seq-default-src)" marker-end="url(#seq-end)"/>
<rect x="412.3" y="1075" width="105.5" height="16" rx="2" fill="white" fill-opacity="0.9"/>
<text x="465" y="1087" text-anchor="middle" font-size="10" fill="#000000">Logic-Core JSON</text>
<path d="M 640 1506 L 680 1506 L 680 1463 L 720 1463" stroke="#000000" stroke-width="1.5" fill="none"  marker-end="url(#seq-end)"/>
<path d="M 720 1503 L 300 1503 L 300 1871 L 300 1827 L 300 962 L 145 962" stroke="#000000" stroke-width="1.5" fill="none"  marker-end="url(#seq-end)"/>
<path d="M 145 962 L 145 1790 L 240 1790 L 240 428 L 410 428" stroke="#000000" stroke-width="1.5" fill="none"  marker-end="url(#seq-end)"/>
<rect x="133.3" y="1777" width="118.5" height="16" rx="2" fill="white" fill-opacity="0.9"/>
<text x="192.5" y="1789" text-anchor="middle" font-size="10" fill="#000000">Valide (0 Errors)</text>
<path d="M 145 962 L 330 962 L 330 937" stroke="#000000" stroke-width="1.5" fill="none" marker-start="url(#seq-default-src)" marker-end="url(#seq-end)"/>
<rect x="184.8" y="949" width="105.5" height="16" rx="2" fill="white" fill-opacity="0.9"/>
<text x="237.5" y="961" text-anchor="middle" font-size="10" fill="#000000">Errors gefunden</text>
<path d="M 355 962 L 355 1365 L 540 1365" stroke="#000000" stroke-width="1.5" fill="none"  marker-end="url(#seq-end)"/>
<rect x="352.5" y="1352" width="190" height="16" rx="2" fill="white" fill-opacity="0.9"/>
<text x="447.5" y="1364" text-anchor="middle" font-size="10" fill="#000000">Iteration &lt; Max (Default: 3)</text>
<path d="M 355 912 L 355 696.5 L 460 696.5 L 460 481" stroke="#000000" stroke-width="1.5" fill="none" marker-start="url(#seq-default-src)" marker-end="url(#seq-end)"/>
<rect x="293" y="683.5" width="229" height="16" rx="2" fill="white" fill-opacity="0.9"/>
<text x="407.5" y="695.5" text-anchor="middle" font-size="10" fill="#000000">Max erreicht → weiter mit Warnings</text>
<path d="M 640 1405 L 680 1405 L 680 1463 L 720 1463" stroke="#000000" stroke-width="1.5" fill="none"  marker-end="url(#seq-end)"/>
<path d="M 510 441 L 695 441 L 695 785 L 880 785" stroke="#000000" stroke-width="1.5" fill="none"  marker-end="url(#seq-end)"/>
<path d="M 980 825 L 1060 825" stroke="#000000" stroke-width="1.5" fill="none"  marker-end="url(#seq-end)"/>
<path d="M 1160 825 L 1240 825" stroke="#000000" stroke-width="1.5" fill="none"  marker-end="url(#seq-end)"/>
<path d="M 1340 825 L 1420 825" stroke="#000000" stroke-width="1.5" fill="none"  marker-end="url(#seq-end)"/>
<path d="M 1520 825 L 1600 825" stroke="#000000" stroke-width="1.5" fill="none"  marker-end="url(#seq-end)"/>
<path d="M 1650 825 L 1650 1229 L 1830 1229 L 1830 1633" stroke="#000000" stroke-width="1.5" fill="none"  marker-end="url(#seq-end)"/>
<path d="M 1780 1713 L 684 1713 L 684 1278" stroke="#000000" stroke-width="1.5" fill="none"  marker-end="url(#seq-end)"/>
<path d="M 684 1238 L 724 1238 L 724 1198 L 764 1198" stroke="#000000" stroke-width="1.5" fill="none"  marker-end="url(#seq-end)"/>
<path d="M 286 281 L 286 675.5 L 232 675.5 L 232 1070" stroke="#000000" stroke-width="1.5" fill="none" stroke-dasharray="10,12" marker-start="url(#msg-start)" marker-end="url(#msg-end)"/>
<rect x="134.8" y="667.5" width="248.5" height="16" rx="2" fill="white" fill-opacity="0.9"/>
<text x="259" y="679.5" text-anchor="middle" font-size="10" fill="#000000">Prozessbeschreibung / Logic-Core JSON</text>
<path d="M 634 1278 L 634 721 L 466 721 L 466 164" stroke="#000000" stroke-width="1.5" fill="none" stroke-dasharray="10,12" marker-start="url(#msg-start)" marker-end="url(#msg-end)"/>
<rect x="435.5" y="713" width="229" height="16" rx="2" fill="white" fill-opacity="0.9"/>
<text x="550" y="725" text-anchor="middle" font-size="10" fill="#000000">BPMN XML + SVG + Compliance-Report</text>
<path d="M 590 1546 L 590 1677 L 980 1677 L 980 1808" stroke="#000000" stroke-width="1.5" fill="none" stroke-dasharray="10,12" marker-start="url(#msg-start)" marker-end="url(#msg-end)"/>
<rect x="680.3" y="1669" width="209.5" height="16" rx="2" fill="white" fill-opacity="0.9"/>
<text x="785" y="1681" text-anchor="middle" font-size="10" fill="#000000">System-Prompt + Few-Shot + Text</text>
<path d="M 590 1445 L 590 1626.5 L 980 1626.5 L 980 1808" stroke="#000000" stroke-width="1.5" fill="none" stroke-dasharray="10,12" marker-start="url(#msg-start)" marker-end="url(#msg-end)"/>
<rect x="696.5" y="1618.5" width="177" height="16" rx="2" fill="white" fill-opacity="0.9"/>
<text x="785" y="1630.5" text-anchor="middle" font-size="10" fill="#000000">Logic-Core + Review-Issues</text>
<path d="M 930 825 L 930 1366.5 L 980 1366.5 L 980 1908" stroke="#000000" stroke-width="1.5" fill="none" stroke-dasharray="10,12" marker-start="url(#msg-start)" marker-end="url(#msg-end)"/>
<rect x="830.8" y="1358.5" width="248.5" height="16" rx="2" fill="white" fill-opacity="0.9"/>
<text x="955" y="1370.5" text-anchor="middle" font-size="10" fill="#000000">ELK-Graph (Nodes, Edges, Constraints)</text>
<path d="M 1290 825 L 1290 1416.5 L 980 1416.5 L 980 2008" stroke="#000000" stroke-width="1.5" fill="none" stroke-dasharray="10,12" marker-start="url(#msg-start)" marker-end="url(#msg-end)"/>
<rect x="1059.5" y="1408.5" width="151" height="16" rx="2" fill="white" fill-opacity="0.9"/>
<text x="1135" y="1420.5" text-anchor="middle" font-size="10" fill="#000000">CMOF-Objekte → toXML()</text>
<path d="M 1470 825 L 1470 1416.5 L 980 1416.5 L 980 2008" stroke="#000000" stroke-width="1.5" fill="none" stroke-dasharray="10,12" marker-start="url(#msg-start)" marker-end="url(#msg-end)"/>
<rect x="1133.3" y="1408.5" width="183.5" height="16" rx="2" fill="white" fill-opacity="0.9"/>
<text x="1225" y="1420.5" text-anchor="middle" font-size="10" fill="#000000">XML → fromXML() Validierung</text>
<circle cx="138" cy="228" r="18" fill="#ffffff" fill-opacity="0.95" stroke="#000000" stroke-width="2"/>
<text x="138" y="266" text-anchor="middle" font-size="11" fill="#000000">Prozessbedarf</text>
<text x="138" y="279" text-anchor="middle" font-size="11" fill="#000000">erkannt</text>
<g><title>Der Benutzer erstellt eine natürlichsprachliche Prozessbeschreibung oder ein strukturiertes Logic-Core JSON. Eingabe über CLI, MCP-Server oder Orchestrator-API.</title>
<rect x="236" y="201" width="100" height="80" rx="10" ry="10" fill="#ffffff" fill-opacity="0.95" stroke="#000000" stroke-width="2"/>
<g><path d="m 251,213 c 0.909,-0.845 1.594,-2.049 1.594,-3.385 0,-2.554 -1.805,-4.622 -4.357,-4.622 -2.552,0 -4.288,2.068 -4.288,4.622 0,1.348 0.974,2.562 1.896,3.405 -0.529,0.187 -5.669,2.097 -5.794,4.756 v 6.718 h 17 v -6.718 c 0,-2.298 -5.528,-4.595 -6.051,-4.776 z m -8,6 l 0,5.5 m 11,0 l 0,-5" fill="#ffffff" stroke="#000000" stroke-width="0.5"/><path d="m 253.162,214.009 c 0,2.447 -2.158,4.431 -4.821,4.431 -2.665,0 -4.822,-1.981 -4.822,-4.431" fill="none" stroke="#000000" stroke-width="0.5"/><path d="m 244.1,209.2 c 0,0 2.251,-2.358 4.274,-1.177 2.024,1.181 4.221,1.537 4.124,0.965 -0.098,-0.57 -0.117,-3.791 -4.191,-4.136 -3.575,0.001 -4.208,3.367 -4.207,4.348 z" fill="#000000" stroke="#000000" stroke-width="0.5"/></g>
<text x="286" y="243" text-anchor="middle" dominant-baseline="middle" font-size="12" fill="#000000">Prozess</text>
<text x="286" y="257" text-anchor="middle" dominant-baseline="middle" font-size="12" fill="#000000">beschreiben</text>
</g>
<g><title>Ergebnis enthält: BPMN 2.0 XML (.bpmn), SVG-Vorschau (.svg), Compliance-Report, Validierungs-Warnings und Agent-History.</title>
<rect x="416" y="164" width="100" height="80" rx="10" ry="10" fill="#ffffff" fill-opacity="0.95" stroke="#000000" stroke-width="2"/>
<g><path d="m 431,176 c 0.909,-0.845 1.594,-2.049 1.594,-3.385 0,-2.554 -1.805,-4.622 -4.357,-4.622 -2.552,0 -4.288,2.068 -4.288,4.622 0,1.348 0.974,2.562 1.896,3.405 -0.529,0.187 -5.669,2.097 -5.794,4.756 v 6.718 h 17 v -6.718 c 0,-2.298 -5.528,-4.595 -6.051,-4.776 z m -8,6 l 0,5.5 m 11,0 l 0,-5" fill="#ffffff" stroke="#000000" stroke-width="0.5"/><path d="m 433.162,177.009 c 0,2.447 -2.158,4.431 -4.821,4.431 -2.665,0 -4.822,-1.981 -4.822,-4.431" fill="none" stroke="#000000" stroke-width="0.5"/><path d="m 424.1,172.2 c 0,0 2.251,-2.358 4.274,-1.177 2.024,1.181 4.221,1.537 4.124,0.965 -0.098,-0.57 -0.117,-3.791 -4.191,-4.136 -3.575,0.001 -4.208,3.367 -4.207,4.348 z" fill="#000000" stroke="#000000" stroke-width="0.5"/></g>
<text x="466" y="206" text-anchor="middle" dominant-baseline="middle" font-size="12" fill="#000000">BPMN-Diagramm</text>
<text x="466" y="220" text-anchor="middle" dominant-baseline="middle" font-size="12" fill="#000000">prüfen</text>
</g>
<polygon points="621,166 646,191 621,216 596,191" fill="#ffffff" fill-opacity="0.95" stroke="#000000" stroke-width="2"/>
<line x1="612" y1="182" x2="630" y2="200" stroke="#000000" stroke-width="3" stroke-linecap="round"/>
<line x1="630" y1="182" x2="612" y2="200" stroke="#000000" stroke-width="3" stroke-linecap="round"/>
<text x="621" y="236" text-anchor="middle" font-size="11" fill="#000000">Ergebnis</text>
<text x="621" y="249" text-anchor="middle" font-size="11" fill="#000000">akzeptabel?</text>
<circle cx="804" cy="98" r="18" fill="#ffffff" fill-opacity="0.95" stroke="#000000" stroke-width="4"/>
<text x="804" y="136" text-anchor="middle" font-size="11" fill="#000000">Diagramm</text>
<text x="804" y="149" text-anchor="middle" font-size="11" fill="#000000">finalisiert</text>
<g><title>Feedback einarbeiten: fehlende Schritte ergänzen, Rollen korrigieren, Gateways präzisieren.</title>
<rect x="806" y="201" width="100" height="80" rx="10" ry="10" fill="#ffffff" fill-opacity="0.95" stroke="#000000" stroke-width="2"/>
<g><path d="m 821,213 c 0.909,-0.845 1.594,-2.049 1.594,-3.385 0,-2.554 -1.805,-4.622 -4.357,-4.622 -2.552,0 -4.288,2.068 -4.288,4.622 0,1.348 0.974,2.562 1.896,3.405 -0.529,0.187 -5.669,2.097 -5.794,4.756 v 6.718 h 17 v -6.718 c 0,-2.298 -5.528,-4.595 -6.051,-4.776 z m -8,6 l 0,5.5 m 11,0 l 0,-5" fill="#ffffff" stroke="#000000" stroke-width="0.5"/><path d="m 823.162,214.009 c 0,2.447 -2.158,4.431 -4.821,4.431 -2.665,0 -4.822,-1.981 -4.822,-4.431" fill="none" stroke="#000000" stroke-width="0.5"/><path d="m 814.1,209.2 c 0,0 2.251,-2.358 4.274,-1.177 2.024,1.181 4.221,1.537 4.124,0.965 -0.098,-0.57 -0.117,-3.791 -4.191,-4.136 -3.575,0.001 -4.208,3.367 -4.207,4.348 z" fill="#000000" stroke="#000000" stroke-width="0.5"/></g>
<text x="856" y="243" text-anchor="middle" dominant-baseline="middle" font-size="12" fill="#000000">Beschreibung</text>
<text x="856" y="257" text-anchor="middle" dominant-baseline="middle" font-size="12" fill="#000000">anpassen</text>
</g>
<g><title>Orchestrator empfängt Anfrage: entweder natürlichsprachlicher Text oder strukturiertes Logic-Core JSON.</title>
<circle cx="232" cy="1088" r="18" fill="#ffffff" fill-opacity="0.95" stroke="#000000" stroke-width="2"/>
<text x="232" y="1126" text-anchor="middle" font-size="11" fill="#000000">Input empfangen</text>
</g>
<polygon points="355,1063 380,1088 355,1113 330,1088" fill="#ffffff" fill-opacity="0.95" stroke="#000000" stroke-width="2"/>
<line x1="346" y1="1079" x2="364" y2="1097" stroke="#000000" stroke-width="3" stroke-linecap="round"/>
<line x1="364" y1="1079" x2="346" y2="1097" stroke="#000000" stroke-width="3" stroke-linecap="round"/>
<text x="355" y="1133" text-anchor="middle" font-size="11" fill="#000000">Input-Typ?</text>
<g><title>Reviewer Agent: Führt 22 Regeln in 4 Schichten aus. Soundness (S01-S11): Start/End-Events, Edge-Referenzen, Gateway-Balance, Boundary-Events. Style (M01-M08): Naming-Konventionen, Label-Vollständigkeit. Pragmatik (P01-P03): Komplexitätsmetriken. Workflow-Net (WF01-WF03): Petri-Net-Soundness. Profile konfigurierbar (default/strict).</title>
<rect x="720" y="1423" width="100" height="80" rx="10" ry="10" fill="#ffffff" fill-opacity="0.95" stroke="#000000" stroke-width="2"/>
<g><path d="m 738,1447 v -1.713 c 0.352,-0.071 0.704,-0.178 1.048,-0.321 0.344,-0.145 0.666,-0.321 0.966,-0.521 l 1.194,1.18 1.567,-1.577 -1.195,-1.18 c 0.403,-0.614 0.683,-1.299 0.825,-2.018 l 1.622,-0.01 v -2.22 l -1.637,0.01 c -0.073,-0.352 -0.178,-0.7 -0.324,-1.044 -0.145,-0.344 -0.321,-0.664 -0.523,-0.962 l 1.131,-1.136 -1.583,-1.563 -1.13,1.136 c -0.614,-0.401 -1.303,-0.681 -2.023,-0.822 l 0.009,-1.619 h -2.241 l 0.004,1.631 c -0.354,0.074 -0.705,0.18 -1.05,0.324 -0.344,0.144 -0.665,0.321 -0.964,0.52 l -1.17,-1.158 -1.567,1.579 1.168,1.157 c -0.403,0.613 -0.683,1.298 -0.825,2.017 l -1.659,0.003 v 2.222 l 1.672,-0.006 c 0.073,0.351 0.18,0.702 0.324,1.045 0.145,0.344 0.321,0.664 0.523,0.961 l -1.199,1.197 1.584,1.56 1.196,-1.193 c 0.614,0.403 1.303,0.682 2.023,0.823 l 0.001,1.699 h 2.227 z m 0.221,-3.996 c -1.789,0.75 -3.858,-0.093 -4.61,-1.874 -0.752,-1.783 0.091,-3.846 1.88,-4.596 1.788,-0.749 3.857,0.093 4.609,1.874 0.752,1.782 -0.091,3.846 -1.879,4.596 z" fill="#ffffff" stroke="#000000" stroke-width="0.5"/><path d="m 738.221,1443.004 c -1.789,0.75 -3.858,-0.093 -4.61,-1.874 -0.752,-1.783 0.091,-3.846 1.88,-4.596 1.788,-0.749 3.857,0.093 4.609,1.874 0.752,1.782 -0.091,3.846 -1.879,4.596 z" fill="none" stroke="#000000" stroke-width="0.5"/><path d="m 743,1451 v -1.713 c 0.352,-0.071 0.704,-0.178 1.048,-0.321 0.344,-0.145 0.666,-0.321 0.966,-0.521 l 1.194,1.18 1.567,-1.577 -1.195,-1.18 c 0.403,-0.614 0.683,-1.299 0.825,-2.018 l 1.622,-0.01 v -2.22 l -1.637,0.01 c -0.073,-0.352 -0.178,-0.7 -0.324,-1.044 -0.145,-0.344 -0.321,-0.664 -0.523,-0.962 l 1.131,-1.136 -1.583,-1.563 -1.13,1.136 c -0.614,-0.401 -1.303,-0.681 -2.023,-0.822 l 0.009,-1.619 h -2.241 l 0.004,1.631 c -0.354,0.074 -0.705,0.18 -1.05,0.324 -0.344,0.144 -0.665,0.321 -0.964,0.52 l -1.17,-1.158 -1.567,1.579 1.168,1.157 c -0.403,0.613 -0.683,1.298 -0.825,2.017 l -1.659,0.003 v 2.222 l 1.672,-0.006 c 0.073,0.351 0.18,0.702 0.324,1.045 0.145,0.344 0.321,0.664 0.523,0.961 l -1.199,1.197 1.584,1.56 1.196,-1.193 c 0.614,0.403 1.303,0.682 2.023,0.823 l 0.001,1.699 h 2.227 z m 0.221,-3.996 c -1.789,0.75 -3.858,-0.093 -4.61,-1.874 -0.752,-1.783 0.091,-3.846 1.88,-4.596 1.788,-0.749 3.857,0.093 4.609,1.874 0.752,1.782 -0.091,3.846 -1.879,4.596 z" fill="#ffffff" stroke="#000000" stroke-width="0.5"/><path d="m 743.221,1447.004 c -1.789,0.75 -3.858,-0.093 -4.61,-1.874 -0.752,-1.783 0.091,-3.846 1.88,-4.596 1.788,-0.749 3.857,0.093 4.609,1.874 0.752,1.782 -0.091,3.846 -1.879,4.596 z" fill="#000000" stroke="#000000" stroke-width="0.5"/></g>
<text x="770" y="1458" text-anchor="middle" dominant-baseline="middle" font-size="12" fill="#000000">Strukturelle</text>
<text x="770" y="1472" text-anchor="middle" dominant-baseline="middle" font-size="12" fill="#000000">Validierung</text>
<text x="770" y="1486" text-anchor="middle" dominant-baseline="middle" font-size="12" fill="#000000">durchführen</text>
</g>
<g><title>Modeler Agent im Extract-Modus: Baut LLM-Prompt mit System-Prompt (Logic-Core Schema + Regeln) + 5 Enterprise Few-Shot-Patterns aus references/prompt-template.md. Sendet an Claude API. Parst JSON-Antwort (auch aus Markdown-Codeblöcken).</title>
<rect x="540" y="1466" width="100" height="80" rx="10" ry="10" fill="#ffffff" fill-opacity="0.95" stroke="#000000" stroke-width="2"/>
<g><path d="m 558,1490 v -1.713 c 0.352,-0.071 0.704,-0.178 1.048,-0.321 0.344,-0.145 0.666,-0.321 0.966,-0.521 l 1.194,1.18 1.567,-1.577 -1.195,-1.18 c 0.403,-0.614 0.683,-1.299 0.825,-2.018 l 1.622,-0.01 v -2.22 l -1.637,0.01 c -0.073,-0.352 -0.178,-0.7 -0.324,-1.044 -0.145,-0.344 -0.321,-0.664 -0.523,-0.962 l 1.131,-1.136 -1.583,-1.563 -1.13,1.136 c -0.614,-0.401 -1.303,-0.681 -2.023,-0.822 l 0.009,-1.619 h -2.241 l 0.004,1.631 c -0.354,0.074 -0.705,0.18 -1.05,0.324 -0.344,0.144 -0.665,0.321 -0.964,0.52 l -1.17,-1.158 -1.567,1.579 1.168,1.157 c -0.403,0.613 -0.683,1.298 -0.825,2.017 l -1.659,0.003 v 2.222 l 1.672,-0.006 c 0.073,0.351 0.18,0.702 0.324,1.045 0.145,0.344 0.321,0.664 0.523,0.961 l -1.199,1.197 1.584,1.56 1.196,-1.193 c 0.614,0.403 1.303,0.682 2.023,0.823 l 0.001,1.699 h 2.227 z m 0.221,-3.996 c -1.789,0.75 -3.858,-0.093 -4.61,-1.874 -0.752,-1.783 0.091,-3.846 1.88,-4.596 1.788,-0.749 3.857,0.093 4.609,1.874 0.752,1.782 -0.091,3.846 -1.879,4.596 z" fill="#ffffff" stroke="#000000" stroke-width="0.5"/><path d="m 558.221,1486.004 c -1.789,0.75 -3.858,-0.093 -4.61,-1.874 -0.752,-1.783 0.091,-3.846 1.88,-4.596 1.788,-0.749 3.857,0.093 4.609,1.874 0.752,1.782 -0.091,3.846 -1.879,4.596 z" fill="none" stroke="#000000" stroke-width="0.5"/><path d="m 563,1494 v -1.713 c 0.352,-0.071 0.704,-0.178 1.048,-0.321 0.344,-0.145 0.666,-0.321 0.966,-0.521 l 1.194,1.18 1.567,-1.577 -1.195,-1.18 c 0.403,-0.614 0.683,-1.299 0.825,-2.018 l 1.622,-0.01 v -2.22 l -1.637,0.01 c -0.073,-0.352 -0.178,-0.7 -0.324,-1.044 -0.145,-0.344 -0.321,-0.664 -0.523,-0.962 l 1.131,-1.136 -1.583,-1.563 -1.13,1.136 c -0.614,-0.401 -1.303,-0.681 -2.023,-0.822 l 0.009,-1.619 h -2.241 l 0.004,1.631 c -0.354,0.074 -0.705,0.18 -1.05,0.324 -0.344,0.144 -0.665,0.321 -0.964,0.52 l -1.17,-1.158 -1.567,1.579 1.168,1.157 c -0.403,0.613 -0.683,1.298 -0.825,2.017 l -1.659,0.003 v 2.222 l 1.672,-0.006 c 0.073,0.351 0.18,0.702 0.324,1.045 0.145,0.344 0.321,0.664 0.523,0.961 l -1.199,1.197 1.584,1.56 1.196,-1.193 c 0.614,0.403 1.303,0.682 2.023,0.823 l 0.001,1.699 h 2.227 z m 0.221,-3.996 c -1.789,0.75 -3.858,-0.093 -4.61,-1.874 -0.752,-1.783 0.091,-3.846 1.88,-4.596 1.788,-0.749 3.857,0.093 4.609,1.874 0.752,1.782 -0.091,3.846 -1.879,4.596 z" fill="#ffffff" stroke="#000000" stroke-width="0.5"/><path d="m 563.221,1490.004 c -1.789,0.75 -3.858,-0.093 -4.61,-1.874 -0.752,-1.783 0.091,-3.846 1.88,-4.596 1.788,-0.749 3.857,0.093 4.609,1.874 0.752,1.782 -0.091,3.846 -1.879,4.596 z" fill="#000000" stroke="#000000" stroke-width="0.5"/></g>
<text x="590" y="1501" text-anchor="middle" dominant-baseline="middle" font-size="12" fill="#000000">Logic-Core aus</text>
<text x="590" y="1515" text-anchor="middle" dominant-baseline="middle" font-size="12" fill="#000000">Text</text>
<text x="590" y="1529" text-anchor="middle" dominant-baseline="middle" font-size="12" fill="#000000">extrahieren</text>
</g>
<polygon points="145,912 170,937 145,962 120,937" fill="#ffffff" fill-opacity="0.95" stroke="#000000" stroke-width="2"/>
<line x1="136" y1="928" x2="154" y2="946" stroke="#000000" stroke-width="3" stroke-linecap="round"/>
<line x1="154" y1="928" x2="136" y2="946" stroke="#000000" stroke-width="3" stroke-linecap="round"/>
<text x="145" y="982" text-anchor="middle" font-size="11" fill="#000000">Validierung</text>
<text x="145" y="995" text-anchor="middle" font-size="11" fill="#000000">bestanden?</text>
<g><title>topology.js: inferGatewayDirections() bestimmt Diverging/Converging aus In/Out-Edge-Verhältnis. sortNodesTopologically() für deterministische Reihenfolge. orderLanesByFlow() ordnet Lanes nach Hauptflussrichtung. identifyHappyPathNodes() markiert den Happy Path.</title>
<rect x="410" y="401" width="100" height="80" rx="10" ry="10" fill="#ffffff" fill-opacity="0.95" stroke="#000000" stroke-width="2"/>
<g><path d="m 428,425 v -1.713 c 0.352,-0.071 0.704,-0.178 1.048,-0.321 0.344,-0.145 0.666,-0.321 0.966,-0.521 l 1.194,1.18 1.567,-1.577 -1.195,-1.18 c 0.403,-0.614 0.683,-1.299 0.825,-2.018 l 1.622,-0.01 v -2.22 l -1.637,0.01 c -0.073,-0.352 -0.178,-0.7 -0.324,-1.044 -0.145,-0.344 -0.321,-0.664 -0.523,-0.962 l 1.131,-1.136 -1.583,-1.563 -1.13,1.136 c -0.614,-0.401 -1.303,-0.681 -2.023,-0.822 l 0.009,-1.619 h -2.241 l 0.004,1.631 c -0.354,0.074 -0.705,0.18 -1.05,0.324 -0.344,0.144 -0.665,0.321 -0.964,0.52 l -1.17,-1.158 -1.567,1.579 1.168,1.157 c -0.403,0.613 -0.683,1.298 -0.825,2.017 l -1.659,0.003 v 2.222 l 1.672,-0.006 c 0.073,0.351 0.18,0.702 0.324,1.045 0.145,0.344 0.321,0.664 0.523,0.961 l -1.199,1.197 1.584,1.56 1.196,-1.193 c 0.614,0.403 1.303,0.682 2.023,0.823 l 0.001,1.699 h 2.227 z m 0.221,-3.996 c -1.789,0.75 -3.858,-0.093 -4.61,-1.874 -0.752,-1.783 0.091,-3.846 1.88,-4.596 1.788,-0.749 3.857,0.093 4.609,1.874 0.752,1.782 -0.091,3.846 -1.879,4.596 z" fill="#ffffff" stroke="#000000" stroke-width="0.5"/><path d="m 428.221,421.004 c -1.789,0.75 -3.858,-0.093 -4.61,-1.874 -0.752,-1.783 0.091,-3.846 1.88,-4.596 1.788,-0.749 3.857,0.093 4.609,1.874 0.752,1.782 -0.091,3.846 -1.879,4.596 z" fill="none" stroke="#000000" stroke-width="0.5"/><path d="m 433,429 v -1.713 c 0.352,-0.071 0.704,-0.178 1.048,-0.321 0.344,-0.145 0.666,-0.321 0.966,-0.521 l 1.194,1.18 1.567,-1.577 -1.195,-1.18 c 0.403,-0.614 0.683,-1.299 0.825,-2.018 l 1.622,-0.01 v -2.22 l -1.637,0.01 c -0.073,-0.352 -0.178,-0.7 -0.324,-1.044 -0.145,-0.344 -0.321,-0.664 -0.523,-0.962 l 1.131,-1.136 -1.583,-1.563 -1.13,1.136 c -0.614,-0.401 -1.303,-0.681 -2.023,-0.822 l 0.009,-1.619 h -2.241 l 0.004,1.631 c -0.354,0.074 -0.705,0.18 -1.05,0.324 -0.344,0.144 -0.665,0.321 -0.964,0.52 l -1.17,-1.158 -1.567,1.579 1.168,1.157 c -0.403,0.613 -0.683,1.298 -0.825,2.017 l -1.659,0.003 v 2.222 l 1.672,-0.006 c 0.073,0.351 0.18,0.702 0.324,1.045 0.145,0.344 0.321,0.664 0.523,0.961 l -1.199,1.197 1.584,1.56 1.196,-1.193 c 0.614,0.403 1.303,0.682 2.023,0.823 l 0.001,1.699 h 2.227 z m 0.221,-3.996 c -1.789,0.75 -3.858,-0.093 -4.61,-1.874 -0.752,-1.783 0.091,-3.846 1.88,-4.596 1.788,-0.749 3.857,0.093 4.609,1.874 0.752,1.782 -0.091,3.846 -1.879,4.596 z" fill="#ffffff" stroke="#000000" stroke-width="0.5"/><path d="m 433.221,425.004 c -1.789,0.75 -3.858,-0.093 -4.61,-1.874 -0.752,-1.783 0.091,-3.846 1.88,-4.596 1.788,-0.749 3.857,0.093 4.609,1.874 0.752,1.782 -0.091,3.846 -1.879,4.596 z" fill="#000000" stroke="#000000" stroke-width="0.5"/></g>
<text x="460" y="443" text-anchor="middle" dominant-baseline="middle" font-size="12" fill="#000000">Topologie</text>
<text x="460" y="457" text-anchor="middle" dominant-baseline="middle" font-size="12" fill="#000000">inferieren</text>
</g>
<polygon points="355,912 380,937 355,962 330,937" fill="#ffffff" fill-opacity="0.95" stroke="#000000" stroke-width="2"/>
<line x1="346" y1="928" x2="364" y2="946" stroke="#000000" stroke-width="3" stroke-linecap="round"/>
<line x1="364" y1="928" x2="346" y2="946" stroke="#000000" stroke-width="3" stroke-linecap="round"/>
<text x="355" y="982" text-anchor="middle" font-size="11" fill="#000000">Max Iterationen</text>
<text x="355" y="995" text-anchor="middle" font-size="11" fill="#000000">erreicht?</text>
<g><title>layout.js: logicCoreToElk() konvertiert Logic-Core in ELK-Graph. Nodes bekommen Dimensionen aus config.json. Events/Gateways: externe Label-Höhe. Start→FIRST, End→LAST Layer-Constraint. Lanes via elk.partitioning. Multi-Pool via rectpacking. runElkLayout(): Sugiyama hierarchisch, Direction RIGHT, ORTHOGONAL Routing, LAYER_SWEEP Crossing-Minimierung, NETWORK_SIMPLEX Node-Placement.</title>
<rect x="880" y="745" width="100" height="80" rx="10" ry="10" fill="#ffffff" fill-opacity="0.95" stroke="#000000" stroke-width="2"/>
<g><path d="m 898,769 v -1.713 c 0.352,-0.071 0.704,-0.178 1.048,-0.321 0.344,-0.145 0.666,-0.321 0.966,-0.521 l 1.194,1.18 1.567,-1.577 -1.195,-1.18 c 0.403,-0.614 0.683,-1.299 0.825,-2.018 l 1.622,-0.01 v -2.22 l -1.637,0.01 c -0.073,-0.352 -0.178,-0.7 -0.324,-1.044 -0.145,-0.344 -0.321,-0.664 -0.523,-0.962 l 1.131,-1.136 -1.583,-1.563 -1.13,1.136 c -0.614,-0.401 -1.303,-0.681 -2.023,-0.822 l 0.009,-1.619 h -2.241 l 0.004,1.631 c -0.354,0.074 -0.705,0.18 -1.05,0.324 -0.344,0.144 -0.665,0.321 -0.964,0.52 l -1.17,-1.158 -1.567,1.579 1.168,1.157 c -0.403,0.613 -0.683,1.298 -0.825,2.017 l -1.659,0.003 v 2.222 l 1.672,-0.006 c 0.073,0.351 0.18,0.702 0.324,1.045 0.145,0.344 0.321,0.664 0.523,0.961 l -1.199,1.197 1.584,1.56 1.196,-1.193 c 0.614,0.403 1.303,0.682 2.023,0.823 l 0.001,1.699 h 2.227 z m 0.221,-3.996 c -1.789,0.75 -3.858,-0.093 -4.61,-1.874 -0.752,-1.783 0.091,-3.846 1.88,-4.596 1.788,-0.749 3.857,0.093 4.609,1.874 0.752,1.782 -0.091,3.846 -1.879,4.596 z" fill="#ffffff" stroke="#000000" stroke-width="0.5"/><path d="m 898.221,765.004 c -1.789,0.75 -3.858,-0.093 -4.61,-1.874 -0.752,-1.783 0.091,-3.846 1.88,-4.596 1.788,-0.749 3.857,0.093 4.609,1.874 0.752,1.782 -0.091,3.846 -1.879,4.596 z" fill="none" stroke="#000000" stroke-width="0.5"/><path d="m 903,773 v -1.713 c 0.352,-0.071 0.704,-0.178 1.048,-0.321 0.344,-0.145 0.666,-0.321 0.966,-0.521 l 1.194,1.18 1.567,-1.577 -1.195,-1.18 c 0.403,-0.614 0.683,-1.299 0.825,-2.018 l 1.622,-0.01 v -2.22 l -1.637,0.01 c -0.073,-0.352 -0.178,-0.7 -0.324,-1.044 -0.145,-0.344 -0.321,-0.664 -0.523,-0.962 l 1.131,-1.136 -1.583,-1.563 -1.13,1.136 c -0.614,-0.401 -1.303,-0.681 -2.023,-0.822 l 0.009,-1.619 h -2.241 l 0.004,1.631 c -0.354,0.074 -0.705,0.18 -1.05,0.324 -0.344,0.144 -0.665,0.321 -0.964,0.52 l -1.17,-1.158 -1.567,1.579 1.168,1.157 c -0.403,0.613 -0.683,1.298 -0.825,2.017 l -1.659,0.003 v 2.222 l 1.672,-0.006 c 0.073,0.351 0.18,0.702 0.324,1.045 0.145,0.344 0.321,0.664 0.523,0.961 l -1.199,1.197 1.584,1.56 1.196,-1.193 c 0.614,0.403 1.303,0.682 2.023,0.823 l 0.001,1.699 h 2.227 z m 0.221,-3.996 c -1.789,0.75 -3.858,-0.093 -4.61,-1.874 -0.752,-1.783 0.091,-3.846 1.88,-4.596 1.788,-0.749 3.857,0.093 4.609,1.874 0.752,1.782 -0.091,3.846 -1.879,4.596 z" fill="#ffffff" stroke="#000000" stroke-width="0.5"/><path d="m 903.221,769.004 c -1.789,0.75 -3.858,-0.093 -4.61,-1.874 -0.752,-1.783 0.091,-3.846 1.88,-4.596 1.788,-0.749 3.857,0.093 4.609,1.874 0.752,1.782 -0.091,3.846 -1.879,4.596 z" fill="#000000" stroke="#000000" stroke-width="0.5"/></g>
<text x="930" y="780" text-anchor="middle" dominant-baseline="middle" font-size="12" fill="#000000">ELK Sugiyama</text>
<text x="930" y="794" text-anchor="middle" dominant-baseline="middle" font-size="12" fill="#000000">Layout</text>
<text x="930" y="808" text-anchor="middle" dominant-baseline="middle" font-size="12" fill="#000000">berechnen</text>
</g>
<g><title>Modeler Agent im Refine-Modus: Sendet bisheriges Logic-Core + Review-Issues (Severity + Problem-Beschreibung) an LLM. Claude korrigiert strukturelle Fehler und gibt verbessertes JSON zurück. Max 3 Iterationen (konfigurierbar via maxReviewIterations).</title>
<rect x="540" y="1365" width="100" height="80" rx="10" ry="10" fill="#ffffff" fill-opacity="0.95" stroke="#000000" stroke-width="2"/>
<g><path d="m 558,1389 v -1.713 c 0.352,-0.071 0.704,-0.178 1.048,-0.321 0.344,-0.145 0.666,-0.321 0.966,-0.521 l 1.194,1.18 1.567,-1.577 -1.195,-1.18 c 0.403,-0.614 0.683,-1.299 0.825,-2.018 l 1.622,-0.01 v -2.22 l -1.637,0.01 c -0.073,-0.352 -0.178,-0.7 -0.324,-1.044 -0.145,-0.344 -0.321,-0.664 -0.523,-0.962 l 1.131,-1.136 -1.583,-1.563 -1.13,1.136 c -0.614,-0.401 -1.303,-0.681 -2.023,-0.822 l 0.009,-1.619 h -2.241 l 0.004,1.631 c -0.354,0.074 -0.705,0.18 -1.05,0.324 -0.344,0.144 -0.665,0.321 -0.964,0.52 l -1.17,-1.158 -1.567,1.579 1.168,1.157 c -0.403,0.613 -0.683,1.298 -0.825,2.017 l -1.659,0.003 v 2.222 l 1.672,-0.006 c 0.073,0.351 0.18,0.702 0.324,1.045 0.145,0.344 0.321,0.664 0.523,0.961 l -1.199,1.197 1.584,1.56 1.196,-1.193 c 0.614,0.403 1.303,0.682 2.023,0.823 l 0.001,1.699 h 2.227 z m 0.221,-3.996 c -1.789,0.75 -3.858,-0.093 -4.61,-1.874 -0.752,-1.783 0.091,-3.846 1.88,-4.596 1.788,-0.749 3.857,0.093 4.609,1.874 0.752,1.782 -0.091,3.846 -1.879,4.596 z" fill="#ffffff" stroke="#000000" stroke-width="0.5"/><path d="m 558.221,1385.004 c -1.789,0.75 -3.858,-0.093 -4.61,-1.874 -0.752,-1.783 0.091,-3.846 1.88,-4.596 1.788,-0.749 3.857,0.093 4.609,1.874 0.752,1.782 -0.091,3.846 -1.879,4.596 z" fill="none" stroke="#000000" stroke-width="0.5"/><path d="m 563,1393 v -1.713 c 0.352,-0.071 0.704,-0.178 1.048,-0.321 0.344,-0.145 0.666,-0.321 0.966,-0.521 l 1.194,1.18 1.567,-1.577 -1.195,-1.18 c 0.403,-0.614 0.683,-1.299 0.825,-2.018 l 1.622,-0.01 v -2.22 l -1.637,0.01 c -0.073,-0.352 -0.178,-0.7 -0.324,-1.044 -0.145,-0.344 -0.321,-0.664 -0.523,-0.962 l 1.131,-1.136 -1.583,-1.563 -1.13,1.136 c -0.614,-0.401 -1.303,-0.681 -2.023,-0.822 l 0.009,-1.619 h -2.241 l 0.004,1.631 c -0.354,0.074 -0.705,0.18 -1.05,0.324 -0.344,0.144 -0.665,0.321 -0.964,0.52 l -1.17,-1.158 -1.567,1.579 1.168,1.157 c -0.403,0.613 -0.683,1.298 -0.825,2.017 l -1.659,0.003 v 2.222 l 1.672,-0.006 c 0.073,0.351 0.18,0.702 0.324,1.045 0.145,0.344 0.321,0.664 0.523,0.961 l -1.199,1.197 1.584,1.56 1.196,-1.193 c 0.614,0.403 1.303,0.682 2.023,0.823 l 0.001,1.699 h 2.227 z m 0.221,-3.996 c -1.789,0.75 -3.858,-0.093 -4.61,-1.874 -0.752,-1.783 0.091,-3.846 1.88,-4.596 1.788,-0.749 3.857,0.093 4.609,1.874 0.752,1.782 -0.091,3.846 -1.879,4.596 z" fill="#ffffff" stroke="#000000" stroke-width="0.5"/><path d="m 563.221,1389.004 c -1.789,0.75 -3.858,-0.093 -4.61,-1.874 -0.752,-1.783 0.091,-3.846 1.88,-4.596 1.788,-0.749 3.857,0.093 4.609,1.874 0.752,1.782 -0.091,3.846 -1.879,4.596 z" fill="#000000" stroke="#000000" stroke-width="0.5"/></g>
<text x="590" y="1407" text-anchor="middle" dominant-baseline="middle" font-size="12" fill="#000000">Logic-Core</text>
<text x="590" y="1421" text-anchor="middle" dominant-baseline="middle" font-size="12" fill="#000000">verfeinern</text>
</g>
<g><title>coordinates.js — 10 Post-Processing-Phasen: §5.0 Lane-Bounds aus Node-Positionen, §5.0b Pool-Breitenausgleich, §5.0b2 Collapsed-Pool-Positionierung, §5.0c Happy-Path Y-Leveling, §5.0d Fan-Out Alignment, §5.0e Edge-Route-Compaction, §5.0f Cross-Lane Deconfliction, §5.1 Orthogonales Endpoint-Clipping, §5.2 Synthetisches Routing, §5.3 Force Orthogonal, §5.5 Zigzag-Cleanup.</title>
<rect x="1060" y="745" width="100" height="80" rx="10" ry="10" fill="#ffffff" fill-opacity="0.95" stroke="#000000" stroke-width="2"/>
<g><path d="m 1078,769 v -1.713 c 0.352,-0.071 0.704,-0.178 1.048,-0.321 0.344,-0.145 0.666,-0.321 0.966,-0.521 l 1.194,1.18 1.567,-1.577 -1.195,-1.18 c 0.403,-0.614 0.683,-1.299 0.825,-2.018 l 1.622,-0.01 v -2.22 l -1.637,0.01 c -0.073,-0.352 -0.178,-0.7 -0.324,-1.044 -0.145,-0.344 -0.321,-0.664 -0.523,-0.962 l 1.131,-1.136 -1.583,-1.563 -1.13,1.136 c -0.614,-0.401 -1.303,-0.681 -2.023,-0.822 l 0.009,-1.619 h -2.241 l 0.004,1.631 c -0.354,0.074 -0.705,0.18 -1.05,0.324 -0.344,0.144 -0.665,0.321 -0.964,0.52 l -1.17,-1.158 -1.567,1.579 1.168,1.157 c -0.403,0.613 -0.683,1.298 -0.825,2.017 l -1.659,0.003 v 2.222 l 1.672,-0.006 c 0.073,0.351 0.18,0.702 0.324,1.045 0.145,0.344 0.321,0.664 0.523,0.961 l -1.199,1.197 1.584,1.56 1.196,-1.193 c 0.614,0.403 1.303,0.682 2.023,0.823 l 0.001,1.699 h 2.227 z m 0.221,-3.996 c -1.789,0.75 -3.858,-0.093 -4.61,-1.874 -0.752,-1.783 0.091,-3.846 1.88,-4.596 1.788,-0.749 3.857,0.093 4.609,1.874 0.752,1.782 -0.091,3.846 -1.879,4.596 z" fill="#ffffff" stroke="#000000" stroke-width="0.5"/><path d="m 1078.221,765.004 c -1.789,0.75 -3.858,-0.093 -4.61,-1.874 -0.752,-1.783 0.091,-3.846 1.88,-4.596 1.788,-0.749 3.857,0.093 4.609,1.874 0.752,1.782 -0.091,3.846 -1.879,4.596 z" fill="none" stroke="#000000" stroke-width="0.5"/><path d="m 1083,773 v -1.713 c 0.352,-0.071 0.704,-0.178 1.048,-0.321 0.344,-0.145 0.666,-0.321 0.966,-0.521 l 1.194,1.18 1.567,-1.577 -1.195,-1.18 c 0.403,-0.614 0.683,-1.299 0.825,-2.018 l 1.622,-0.01 v -2.22 l -1.637,0.01 c -0.073,-0.352 -0.178,-0.7 -0.324,-1.044 -0.145,-0.344 -0.321,-0.664 -0.523,-0.962 l 1.131,-1.136 -1.583,-1.563 -1.13,1.136 c -0.614,-0.401 -1.303,-0.681 -2.023,-0.822 l 0.009,-1.619 h -2.241 l 0.004,1.631 c -0.354,0.074 -0.705,0.18 -1.05,0.324 -0.344,0.144 -0.665,0.321 -0.964,0.52 l -1.17,-1.158 -1.567,1.579 1.168,1.157 c -0.403,0.613 -0.683,1.298 -0.825,2.017 l -1.659,0.003 v 2.222 l 1.672,-0.006 c 0.073,0.351 0.18,0.702 0.324,1.045 0.145,0.344 0.321,0.664 0.523,0.961 l -1.199,1.197 1.584,1.56 1.196,-1.193 c 0.614,0.403 1.303,0.682 2.023,0.823 l 0.001,1.699 h 2.227 z m 0.221,-3.996 c -1.789,0.75 -3.858,-0.093 -4.61,-1.874 -0.752,-1.783 0.091,-3.846 1.88,-4.596 1.788,-0.749 3.857,0.093 4.609,1.874 0.752,1.782 -0.091,3.846 -1.879,4.596 z" fill="#ffffff" stroke="#000000" stroke-width="0.5"/><path d="m 1083.221,769.004 c -1.789,0.75 -3.858,-0.093 -4.61,-1.874 -0.752,-1.783 0.091,-3.846 1.88,-4.596 1.788,-0.749 3.857,0.093 4.609,1.874 0.752,1.782 -0.091,3.846 -1.879,4.596 z" fill="#000000" stroke="#000000" stroke-width="0.5"/></g>
<text x="1110" y="787" text-anchor="middle" dominant-baseline="middle" font-size="12" fill="#000000">Koordinaten</text>
<text x="1110" y="801" text-anchor="middle" dominant-baseline="middle" font-size="12" fill="#000000">transformieren</text>
</g>
<g><title>bpmn-xml.js via bpmn-moddle: Erzeugt typisierte CMOF-Objekte (moddle.create). Semantic Model: Definitions, Process, FlowNodes, SequenceFlows. Diagram Interchange: BPMNDiagram, BPMNPlane, BPMNShape mit Bounds, BPMNEdge mit Waypoints. incoming/outgoing-Referenzen (Industriekonvention). OMG BPMN 2.0.2 konform (ISO/IEC 19510:2013).</title>
<rect x="1240" y="745" width="100" height="80" rx="10" ry="10" fill="#ffffff" fill-opacity="0.95" stroke="#000000" stroke-width="2"/>
<g><path d="m 1258,769 v -1.713 c 0.352,-0.071 0.704,-0.178 1.048,-0.321 0.344,-0.145 0.666,-0.321 0.966,-0.521 l 1.194,1.18 1.567,-1.577 -1.195,-1.18 c 0.403,-0.614 0.683,-1.299 0.825,-2.018 l 1.622,-0.01 v -2.22 l -1.637,0.01 c -0.073,-0.352 -0.178,-0.7 -0.324,-1.044 -0.145,-0.344 -0.321,-0.664 -0.523,-0.962 l 1.131,-1.136 -1.583,-1.563 -1.13,1.136 c -0.614,-0.401 -1.303,-0.681 -2.023,-0.822 l 0.009,-1.619 h -2.241 l 0.004,1.631 c -0.354,0.074 -0.705,0.18 -1.05,0.324 -0.344,0.144 -0.665,0.321 -0.964,0.52 l -1.17,-1.158 -1.567,1.579 1.168,1.157 c -0.403,0.613 -0.683,1.298 -0.825,2.017 l -1.659,0.003 v 2.222 l 1.672,-0.006 c 0.073,0.351 0.18,0.702 0.324,1.045 0.145,0.344 0.321,0.664 0.523,0.961 l -1.199,1.197 1.584,1.56 1.196,-1.193 c 0.614,0.403 1.303,0.682 2.023,0.823 l 0.001,1.699 h 2.227 z m 0.221,-3.996 c -1.789,0.75 -3.858,-0.093 -4.61,-1.874 -0.752,-1.783 0.091,-3.846 1.88,-4.596 1.788,-0.749 3.857,0.093 4.609,1.874 0.752,1.782 -0.091,3.846 -1.879,4.596 z" fill="#ffffff" stroke="#000000" stroke-width="0.5"/><path d="m 1258.221,765.004 c -1.789,0.75 -3.858,-0.093 -4.61,-1.874 -0.752,-1.783 0.091,-3.846 1.88,-4.596 1.788,-0.749 3.857,0.093 4.609,1.874 0.752,1.782 -0.091,3.846 -1.879,4.596 z" fill="none" stroke="#000000" stroke-width="0.5"/><path d="m 1263,773 v -1.713 c 0.352,-0.071 0.704,-0.178 1.048,-0.321 0.344,-0.145 0.666,-0.321 0.966,-0.521 l 1.194,1.18 1.567,-1.577 -1.195,-1.18 c 0.403,-0.614 0.683,-1.299 0.825,-2.018 l 1.622,-0.01 v -2.22 l -1.637,0.01 c -0.073,-0.352 -0.178,-0.7 -0.324,-1.044 -0.145,-0.344 -0.321,-0.664 -0.523,-0.962 l 1.131,-1.136 -1.583,-1.563 -1.13,1.136 c -0.614,-0.401 -1.303,-0.681 -2.023,-0.822 l 0.009,-1.619 h -2.241 l 0.004,1.631 c -0.354,0.074 -0.705,0.18 -1.05,0.324 -0.344,0.144 -0.665,0.321 -0.964,0.52 l -1.17,-1.158 -1.567,1.579 1.168,1.157 c -0.403,0.613 -0.683,1.298 -0.825,2.017 l -1.659,0.003 v 2.222 l 1.672,-0.006 c 0.073,0.351 0.18,0.702 0.324,1.045 0.145,0.344 0.321,0.664 0.523,0.961 l -1.199,1.197 1.584,1.56 1.196,-1.193 c 0.614,0.403 1.303,0.682 2.023,0.823 l 0.001,1.699 h 2.227 z m 0.221,-3.996 c -1.789,0.75 -3.858,-0.093 -4.61,-1.874 -0.752,-1.783 0.091,-3.846 1.88,-4.596 1.788,-0.749 3.857,0.093 4.609,1.874 0.752,1.782 -0.091,3.846 -1.879,4.596 z" fill="#ffffff" stroke="#000000" stroke-width="0.5"/><path d="m 1263.221,769.004 c -1.789,0.75 -3.858,-0.093 -4.61,-1.874 -0.752,-1.783 0.091,-3.846 1.88,-4.596 1.788,-0.749 3.857,0.093 4.609,1.874 0.752,1.782 -0.091,3.846 -1.879,4.596 z" fill="#000000" stroke="#000000" stroke-width="0.5"/></g>
<text x="1290" y="787" text-anchor="middle" dominant-baseline="middle" font-size="12" fill="#000000">BPMN 2.0 XML</text>
<text x="1290" y="801" text-anchor="middle" dominant-baseline="middle" font-size="12" fill="#000000">erzeugen</text>
</g>
<g><title>validateBpmnXml(): Parst erzeugtes XML zurück durch moddle.fromXML(). 0 Warnings = strukturell korrekt. Erkennt: fehlende Namespace-Deklarationen, ungültige Attribut-Typen, nicht auflösbare Referenzen, unbekannte Elemente.</title>
<rect x="1420" y="745" width="100" height="80" rx="10" ry="10" fill="#ffffff" fill-opacity="0.95" stroke="#000000" stroke-width="2"/>
<g><path d="m 1438,769 v -1.713 c 0.352,-0.071 0.704,-0.178 1.048,-0.321 0.344,-0.145 0.666,-0.321 0.966,-0.521 l 1.194,1.18 1.567,-1.577 -1.195,-1.18 c 0.403,-0.614 0.683,-1.299 0.825,-2.018 l 1.622,-0.01 v -2.22 l -1.637,0.01 c -0.073,-0.352 -0.178,-0.7 -0.324,-1.044 -0.145,-0.344 -0.321,-0.664 -0.523,-0.962 l 1.131,-1.136 -1.583,-1.563 -1.13,1.136 c -0.614,-0.401 -1.303,-0.681 -2.023,-0.822 l 0.009,-1.619 h -2.241 l 0.004,1.631 c -0.354,0.074 -0.705,0.18 -1.05,0.324 -0.344,0.144 -0.665,0.321 -0.964,0.52 l -1.17,-1.158 -1.567,1.579 1.168,1.157 c -0.403,0.613 -0.683,1.298 -0.825,2.017 l -1.659,0.003 v 2.222 l 1.672,-0.006 c 0.073,0.351 0.18,0.702 0.324,1.045 0.145,0.344 0.321,0.664 0.523,0.961 l -1.199,1.197 1.584,1.56 1.196,-1.193 c 0.614,0.403 1.303,0.682 2.023,0.823 l 0.001,1.699 h 2.227 z m 0.221,-3.996 c -1.789,0.75 -3.858,-0.093 -4.61,-1.874 -0.752,-1.783 0.091,-3.846 1.88,-4.596 1.788,-0.749 3.857,0.093 4.609,1.874 0.752,1.782 -0.091,3.846 -1.879,4.596 z" fill="#ffffff" stroke="#000000" stroke-width="0.5"/><path d="m 1438.221,765.004 c -1.789,0.75 -3.858,-0.093 -4.61,-1.874 -0.752,-1.783 0.091,-3.846 1.88,-4.596 1.788,-0.749 3.857,0.093 4.609,1.874 0.752,1.782 -0.091,3.846 -1.879,4.596 z" fill="none" stroke="#000000" stroke-width="0.5"/><path d="m 1443,773 v -1.713 c 0.352,-0.071 0.704,-0.178 1.048,-0.321 0.344,-0.145 0.666,-0.321 0.966,-0.521 l 1.194,1.18 1.567,-1.577 -1.195,-1.18 c 0.403,-0.614 0.683,-1.299 0.825,-2.018 l 1.622,-0.01 v -2.22 l -1.637,0.01 c -0.073,-0.352 -0.178,-0.7 -0.324,-1.044 -0.145,-0.344 -0.321,-0.664 -0.523,-0.962 l 1.131,-1.136 -1.583,-1.563 -1.13,1.136 c -0.614,-0.401 -1.303,-0.681 -2.023,-0.822 l 0.009,-1.619 h -2.241 l 0.004,1.631 c -0.354,0.074 -0.705,0.18 -1.05,0.324 -0.344,0.144 -0.665,0.321 -0.964,0.52 l -1.17,-1.158 -1.567,1.579 1.168,1.157 c -0.403,0.613 -0.683,1.298 -0.825,2.017 l -1.659,0.003 v 2.222 l 1.672,-0.006 c 0.073,0.351 0.18,0.702 0.324,1.045 0.145,0.344 0.321,0.664 0.523,0.961 l -1.199,1.197 1.584,1.56 1.196,-1.193 c 0.614,0.403 1.303,0.682 2.023,0.823 l 0.001,1.699 h 2.227 z m 0.221,-3.996 c -1.789,0.75 -3.858,-0.093 -4.61,-1.874 -0.752,-1.783 0.091,-3.846 1.88,-4.596 1.788,-0.749 3.857,0.093 4.609,1.874 0.752,1.782 -0.091,3.846 -1.879,4.596 z" fill="#ffffff" stroke="#000000" stroke-width="0.5"/><path d="m 1443.221,769.004 c -1.789,0.75 -3.858,-0.093 -4.61,-1.874 -0.752,-1.783 0.091,-3.846 1.88,-4.596 1.788,-0.749 3.857,0.093 4.609,1.874 0.752,1.782 -0.091,3.846 -1.879,4.596 z" fill="#000000" stroke="#000000" stroke-width="0.5"/></g>
<text x="1470" y="787" text-anchor="middle" dominant-baseline="middle" font-size="12" fill="#000000">Round-Trip</text>
<text x="1470" y="801" text-anchor="middle" dominant-baseline="middle" font-size="12" fill="#000000">validieren</text>
</g>
<g><title>svg.js + icons.js: Standalone-SVG ohne externe Dependencies. Pools/Lanes mit rotiertem Header. Events mit Marker-Icons (Message, Timer, Error, Signal, Compensation, Link, Terminate). Gateways mit Marker (X, +, O, Pentagon). Tasks mit Type-Icon + Bottom-Markers (Loop, MI-Parallel, MI-Sequential, Ad-Hoc, Compensation). Edges mit Arrow-Markern. Text-Wrapping mit automatischem Zeilenumbruch.</title>
<rect x="1600" y="745" width="100" height="80" rx="10" ry="10" fill="#ffffff" fill-opacity="0.95" stroke="#000000" stroke-width="2"/>
<g><path d="m 1618,769 v -1.713 c 0.352,-0.071 0.704,-0.178 1.048,-0.321 0.344,-0.145 0.666,-0.321 0.966,-0.521 l 1.194,1.18 1.567,-1.577 -1.195,-1.18 c 0.403,-0.614 0.683,-1.299 0.825,-2.018 l 1.622,-0.01 v -2.22 l -1.637,0.01 c -0.073,-0.352 -0.178,-0.7 -0.324,-1.044 -0.145,-0.344 -0.321,-0.664 -0.523,-0.962 l 1.131,-1.136 -1.583,-1.563 -1.13,1.136 c -0.614,-0.401 -1.303,-0.681 -2.023,-0.822 l 0.009,-1.619 h -2.241 l 0.004,1.631 c -0.354,0.074 -0.705,0.18 -1.05,0.324 -0.344,0.144 -0.665,0.321 -0.964,0.52 l -1.17,-1.158 -1.567,1.579 1.168,1.157 c -0.403,0.613 -0.683,1.298 -0.825,2.017 l -1.659,0.003 v 2.222 l 1.672,-0.006 c 0.073,0.351 0.18,0.702 0.324,1.045 0.145,0.344 0.321,0.664 0.523,0.961 l -1.199,1.197 1.584,1.56 1.196,-1.193 c 0.614,0.403 1.303,0.682 2.023,0.823 l 0.001,1.699 h 2.227 z m 0.221,-3.996 c -1.789,0.75 -3.858,-0.093 -4.61,-1.874 -0.752,-1.783 0.091,-3.846 1.88,-4.596 1.788,-0.749 3.857,0.093 4.609,1.874 0.752,1.782 -0.091,3.846 -1.879,4.596 z" fill="#ffffff" stroke="#000000" stroke-width="0.5"/><path d="m 1618.221,765.004 c -1.789,0.75 -3.858,-0.093 -4.61,-1.874 -0.752,-1.783 0.091,-3.846 1.88,-4.596 1.788,-0.749 3.857,0.093 4.609,1.874 0.752,1.782 -0.091,3.846 -1.879,4.596 z" fill="none" stroke="#000000" stroke-width="0.5"/><path d="m 1623,773 v -1.713 c 0.352,-0.071 0.704,-0.178 1.048,-0.321 0.344,-0.145 0.666,-0.321 0.966,-0.521 l 1.194,1.18 1.567,-1.577 -1.195,-1.18 c 0.403,-0.614 0.683,-1.299 0.825,-2.018 l 1.622,-0.01 v -2.22 l -1.637,0.01 c -0.073,-0.352 -0.178,-0.7 -0.324,-1.044 -0.145,-0.344 -0.321,-0.664 -0.523,-0.962 l 1.131,-1.136 -1.583,-1.563 -1.13,1.136 c -0.614,-0.401 -1.303,-0.681 -2.023,-0.822 l 0.009,-1.619 h -2.241 l 0.004,1.631 c -0.354,0.074 -0.705,0.18 -1.05,0.324 -0.344,0.144 -0.665,0.321 -0.964,0.52 l -1.17,-1.158 -1.567,1.579 1.168,1.157 c -0.403,0.613 -0.683,1.298 -0.825,2.017 l -1.659,0.003 v 2.222 l 1.672,-0.006 c 0.073,0.351 0.18,0.702 0.324,1.045 0.145,0.344 0.321,0.664 0.523,0.961 l -1.199,1.197 1.584,1.56 1.196,-1.193 c 0.614,0.403 1.303,0.682 2.023,0.823 l 0.001,1.699 h 2.227 z m 0.221,-3.996 c -1.789,0.75 -3.858,-0.093 -4.61,-1.874 -0.752,-1.783 0.091,-3.846 1.88,-4.596 1.788,-0.749 3.857,0.093 4.609,1.874 0.752,1.782 -0.091,3.846 -1.879,4.596 z" fill="#ffffff" stroke="#000000" stroke-width="0.5"/><path d="m 1623.221,769.004 c -1.789,0.75 -3.858,-0.093 -4.61,-1.874 -0.752,-1.783 0.091,-3.846 1.88,-4.596 1.788,-0.749 3.857,0.093 4.609,1.874 0.752,1.782 -0.091,3.846 -1.879,4.596 z" fill="#000000" stroke="#000000" stroke-width="0.5"/></g>
<text x="1650" y="787" text-anchor="middle" dominant-baseline="middle" font-size="12" fill="#000000">SVG-Vorschau</text>
<text x="1650" y="801" text-anchor="middle" dominant-baseline="middle" font-size="12" fill="#000000">rendern</text>
</g>
<g><title>Compliance Agent: Prüft OMG BPMN 2.0.2 Konformität. Namespace-URIs (MODEL, DI, DC, DI), Pflicht-Attribute (id, targetNamespace), DI-Vollständigkeit (jeder FlowNode hat BPMNShape, jeder Flow hat BPMNEdge), Element-Typ-Mapping gegen OMG-Spezifikation.</title>
<rect x="1780" y="1633" width="100" height="80" rx="10" ry="10" fill="#ffffff" fill-opacity="0.95" stroke="#000000" stroke-width="2"/>
<g><path d="m 1798,1657 v -1.713 c 0.352,-0.071 0.704,-0.178 1.048,-0.321 0.344,-0.145 0.666,-0.321 0.966,-0.521 l 1.194,1.18 1.567,-1.577 -1.195,-1.18 c 0.403,-0.614 0.683,-1.299 0.825,-2.018 l 1.622,-0.01 v -2.22 l -1.637,0.01 c -0.073,-0.352 -0.178,-0.7 -0.324,-1.044 -0.145,-0.344 -0.321,-0.664 -0.523,-0.962 l 1.131,-1.136 -1.583,-1.563 -1.13,1.136 c -0.614,-0.401 -1.303,-0.681 -2.023,-0.822 l 0.009,-1.619 h -2.241 l 0.004,1.631 c -0.354,0.074 -0.705,0.18 -1.05,0.324 -0.344,0.144 -0.665,0.321 -0.964,0.52 l -1.17,-1.158 -1.567,1.579 1.168,1.157 c -0.403,0.613 -0.683,1.298 -0.825,2.017 l -1.659,0.003 v 2.222 l 1.672,-0.006 c 0.073,0.351 0.18,0.702 0.324,1.045 0.145,0.344 0.321,0.664 0.523,0.961 l -1.199,1.197 1.584,1.56 1.196,-1.193 c 0.614,0.403 1.303,0.682 2.023,0.823 l 0.001,1.699 h 2.227 z m 0.221,-3.996 c -1.789,0.75 -3.858,-0.093 -4.61,-1.874 -0.752,-1.783 0.091,-3.846 1.88,-4.596 1.788,-0.749 3.857,0.093 4.609,1.874 0.752,1.782 -0.091,3.846 -1.879,4.596 z" fill="#ffffff" stroke="#000000" stroke-width="0.5"/><path d="m 1798.221,1653.004 c -1.789,0.75 -3.858,-0.093 -4.61,-1.874 -0.752,-1.783 0.091,-3.846 1.88,-4.596 1.788,-0.749 3.857,0.093 4.609,1.874 0.752,1.782 -0.091,3.846 -1.879,4.596 z" fill="none" stroke="#000000" stroke-width="0.5"/><path d="m 1803,1661 v -1.713 c 0.352,-0.071 0.704,-0.178 1.048,-0.321 0.344,-0.145 0.666,-0.321 0.966,-0.521 l 1.194,1.18 1.567,-1.577 -1.195,-1.18 c 0.403,-0.614 0.683,-1.299 0.825,-2.018 l 1.622,-0.01 v -2.22 l -1.637,0.01 c -0.073,-0.352 -0.178,-0.7 -0.324,-1.044 -0.145,-0.344 -0.321,-0.664 -0.523,-0.962 l 1.131,-1.136 -1.583,-1.563 -1.13,1.136 c -0.614,-0.401 -1.303,-0.681 -2.023,-0.822 l 0.009,-1.619 h -2.241 l 0.004,1.631 c -0.354,0.074 -0.705,0.18 -1.05,0.324 -0.344,0.144 -0.665,0.321 -0.964,0.52 l -1.17,-1.158 -1.567,1.579 1.168,1.157 c -0.403,0.613 -0.683,1.298 -0.825,2.017 l -1.659,0.003 v 2.222 l 1.672,-0.006 c 0.073,0.351 0.18,0.702 0.324,1.045 0.145,0.344 0.321,0.664 0.523,0.961 l -1.199,1.197 1.584,1.56 1.196,-1.193 c 0.614,0.403 1.303,0.682 2.023,0.823 l 0.001,1.699 h 2.227 z m 0.221,-3.996 c -1.789,0.75 -3.858,-0.093 -4.61,-1.874 -0.752,-1.783 0.091,-3.846 1.88,-4.596 1.788,-0.749 3.857,0.093 4.609,1.874 0.752,1.782 -0.091,3.846 -1.879,4.596 z" fill="#ffffff" stroke="#000000" stroke-width="0.5"/><path d="m 1803.221,1657.004 c -1.789,0.75 -3.858,-0.093 -4.61,-1.874 -0.752,-1.783 0.091,-3.846 1.88,-4.596 1.788,-0.749 3.857,0.093 4.609,1.874 0.752,1.782 -0.091,3.846 -1.879,4.596 z" fill="#000000" stroke="#000000" stroke-width="0.5"/></g>
<text x="1830" y="1675" text-anchor="middle" dominant-baseline="middle" font-size="12" fill="#000000">OMG-Konformität</text>
<text x="1830" y="1689" text-anchor="middle" dominant-baseline="middle" font-size="12" fill="#000000">prüfen</text>
</g>
<g><title>Bündelt alle Artefakte: BPMN XML, SVG-Vorschau, Compliance-Report (errors/warnings/violations), Validierungs-Ergebnis (errors/warnings/xmlWarnings), History aller Agent-Aufrufe mit Timestamps.</title>
<rect x="584" y="1198" width="100" height="80" rx="10" ry="10" fill="#ffffff" fill-opacity="0.95" stroke="#000000" stroke-width="2"/>
<g><path d="m 602,1222 v -1.713 c 0.352,-0.071 0.704,-0.178 1.048,-0.321 0.344,-0.145 0.666,-0.321 0.966,-0.521 l 1.194,1.18 1.567,-1.577 -1.195,-1.18 c 0.403,-0.614 0.683,-1.299 0.825,-2.018 l 1.622,-0.01 v -2.22 l -1.637,0.01 c -0.073,-0.352 -0.178,-0.7 -0.324,-1.044 -0.145,-0.344 -0.321,-0.664 -0.523,-0.962 l 1.131,-1.136 -1.583,-1.563 -1.13,1.136 c -0.614,-0.401 -1.303,-0.681 -2.023,-0.822 l 0.009,-1.619 h -2.241 l 0.004,1.631 c -0.354,0.074 -0.705,0.18 -1.05,0.324 -0.344,0.144 -0.665,0.321 -0.964,0.52 l -1.17,-1.158 -1.567,1.579 1.168,1.157 c -0.403,0.613 -0.683,1.298 -0.825,2.017 l -1.659,0.003 v 2.222 l 1.672,-0.006 c 0.073,0.351 0.18,0.702 0.324,1.045 0.145,0.344 0.321,0.664 0.523,0.961 l -1.199,1.197 1.584,1.56 1.196,-1.193 c 0.614,0.403 1.303,0.682 2.023,0.823 l 0.001,1.699 h 2.227 z m 0.221,-3.996 c -1.789,0.75 -3.858,-0.093 -4.61,-1.874 -0.752,-1.783 0.091,-3.846 1.88,-4.596 1.788,-0.749 3.857,0.093 4.609,1.874 0.752,1.782 -0.091,3.846 -1.879,4.596 z" fill="#ffffff" stroke="#000000" stroke-width="0.5"/><path d="m 602.221,1218.004 c -1.789,0.75 -3.858,-0.093 -4.61,-1.874 -0.752,-1.783 0.091,-3.846 1.88,-4.596 1.788,-0.749 3.857,0.093 4.609,1.874 0.752,1.782 -0.091,3.846 -1.879,4.596 z" fill="none" stroke="#000000" stroke-width="0.5"/><path d="m 607,1226 v -1.713 c 0.352,-0.071 0.704,-0.178 1.048,-0.321 0.344,-0.145 0.666,-0.321 0.966,-0.521 l 1.194,1.18 1.567,-1.577 -1.195,-1.18 c 0.403,-0.614 0.683,-1.299 0.825,-2.018 l 1.622,-0.01 v -2.22 l -1.637,0.01 c -0.073,-0.352 -0.178,-0.7 -0.324,-1.044 -0.145,-0.344 -0.321,-0.664 -0.523,-0.962 l 1.131,-1.136 -1.583,-1.563 -1.13,1.136 c -0.614,-0.401 -1.303,-0.681 -2.023,-0.822 l 0.009,-1.619 h -2.241 l 0.004,1.631 c -0.354,0.074 -0.705,0.18 -1.05,0.324 -0.344,0.144 -0.665,0.321 -0.964,0.52 l -1.17,-1.158 -1.567,1.579 1.168,1.157 c -0.403,0.613 -0.683,1.298 -0.825,2.017 l -1.659,0.003 v 2.222 l 1.672,-0.006 c 0.073,0.351 0.18,0.702 0.324,1.045 0.145,0.344 0.321,0.664 0.523,0.961 l -1.199,1.197 1.584,1.56 1.196,-1.193 c 0.614,0.403 1.303,0.682 2.023,0.823 l 0.001,1.699 h 2.227 z m 0.221,-3.996 c -1.789,0.75 -3.858,-0.093 -4.61,-1.874 -0.752,-1.783 0.091,-3.846 1.88,-4.596 1.788,-0.749 3.857,0.093 4.609,1.874 0.752,1.782 -0.091,3.846 -1.879,4.596 z" fill="#ffffff" stroke="#000000" stroke-width="0.5"/><path d="m 607.221,1222.004 c -1.789,0.75 -3.858,-0.093 -4.61,-1.874 -0.752,-1.783 0.091,-3.846 1.88,-4.596 1.788,-0.749 3.857,0.093 4.609,1.874 0.752,1.782 -0.091,3.846 -1.879,4.596 z" fill="#000000" stroke="#000000" stroke-width="0.5"/></g>
<text x="634" y="1240" text-anchor="middle" dominant-baseline="middle" font-size="12" fill="#000000">Ergebnis</text>
<text x="634" y="1254" text-anchor="middle" dominant-baseline="middle" font-size="12" fill="#000000">zusammenstellen</text>
</g>
<circle cx="782" cy="1198" r="18" fill="#ffffff" fill-opacity="0.95" stroke="#000000" stroke-width="4"/>
<text x="782" y="1236" text-anchor="middle" font-size="11" fill="#000000">Pipeline</text>
<text x="782" y="1249" text-anchor="middle" font-size="11" fill="#000000">abgeschlossen</text>
</svg>