<svg xmlns="http://www.w3.org/2000/svg" width="2426" height="1633" viewBox="0 0 2426 1633" font-family="Arial, sans-serif">
<defs>
  <!-- Sequence flow: filled triangle (OMG spec Fig 10.43) -->
  <marker id="seq-end" viewBox="0 0 20 20" refX="11" refY="10"
    markerWidth="10" markerHeight="10" orient="auto">
    <path d="M 1 5 L 11 10 L 1 15 Z" fill="#000000" stroke="#000000" stroke-width="1"/>
  </marker>
  <!-- Default flow: diagonal slash at source (OMG spec Fig 10.47) -->
  <marker id="seq-default-src" viewBox="0 0 20 20" refX="6" refY="10"
    markerWidth="10" markerHeight="10" orient="auto">
    <path d="M 6 3 L 10 17" stroke="#000000" stroke-width="1.5"/>
  </marker>
  <!-- Conditional flow: open diamond at source (OMG spec Fig 10.48) -->
  <marker id="seq-conditional-src" viewBox="0 0 20 20" refX="1" refY="10"
    markerWidth="12" markerHeight="12" orient="auto">
    <path d="M 1 10 L 8 6 L 15 10 L 8 14 Z" fill="#ffffff" stroke="#000000" stroke-width="1"/>
  </marker>
  <!-- Message flow: open circle at source (OMG spec Fig 9.5) -->
  <marker id="msg-start" viewBox="0 0 20 20" refX="6" refY="6"
    markerWidth="20" markerHeight="20" orient="auto">
    <circle cx="6" cy="6" r="3.5" fill="#ffffff" stroke="#000000" stroke-width="1"/>
  </marker>
  <!-- Message flow: open arrowhead at target -->
  <marker id="msg-end" viewBox="0 0 20 20" refX="8.5" refY="5"
    markerWidth="20" markerHeight="20" orient="auto">
    <path d="m 1 5 l 0 -3 l 7 3 l -7 3 z" fill="#ffffff" stroke="#000000" stroke-width="1" stroke-linecap="butt"/>
  </marker>
  <!-- Association: open chevron -->
  <marker id="assoc-end" viewBox="0 0 20 20" refX="11" refY="10"
    markerWidth="10" markerHeight="10" orient="auto">
    <path d="M 1 5 L 11 10 L 1 15" fill="none" stroke="#000000" stroke-width="1.5"/>
  </marker>
</defs>
<rect width="2426" height="1633" fill="#fafafa"/>
<rect x="50" y="1323" width="2326" height="60" fill="#ffffff" stroke="#000000" stroke-width="1.5"/>
<text x="1213" y="1353" text-anchor="middle" dominant-baseline="middle" font-size="12" font-weight="bold" fill="#000000">Claude API — LLM Provider (Anthropic)</text>
<rect x="50" y="1423" width="2326" height="60" fill="#ffffff" stroke="#000000" stroke-width="1.5"/>
<text x="1213" y="1453" text-anchor="middle" dominant-baseline="middle" font-size="12" font-weight="bold" fill="#000000">ElkJS — Sugiyama Layout Engine (Eclipse)</text>
<rect x="50" y="1523" width="2326" height="60" fill="#ffffff" stroke="#000000" stroke-width="1.5"/>
<text x="1213" y="1553" text-anchor="middle" dominant-baseline="middle" font-size="12" font-weight="bold" fill="#000000">bpmn-moddle — CMOF Metamodell (bpmn.io)</text>
<rect x="90" y="50" width="2286" height="286" fill="#ffffff" fill-opacity="0.25" stroke="#000000" stroke-width="1.5"/>
<rect x="50" y="50" width="40" height="286" fill="#f0f0f0" stroke="#000000" stroke-width="1.5"/>
<text x="70" y="193" text-anchor="middle" dominant-baseline="middle" font-size="11" fill="#000000" transform="rotate(-90,70,193)">Prozessverantwortlicher</text>
<rect x="90" y="649" width="2286" height="300" fill="#ffffff" fill-opacity="0.25" stroke="#000000" stroke-width="1.5"/>
<rect x="50" y="649" width="40" height="300" fill="#f0f0f0" stroke="#000000" stroke-width="1.5"/>
<text x="70" y="799" text-anchor="middle" dominant-baseline="middle" font-size="11" fill="#000000" transform="rotate(-90,70,799)">Orchestrator (orchestrator.js)</text>
<rect x="90" y="371" width="2286" height="276" fill="#ffffff" fill-opacity="0.25" stroke="#000000" stroke-width="1.5"/>
<rect x="50" y="371" width="40" height="276" fill="#f0f0f0" stroke="#000000" stroke-width="1.5"/>
<text x="70" y="509" text-anchor="middle" dominant-baseline="middle" font-size="11" fill="#000000" transform="rotate(-90,70,509)">Agents — Modeler + Reviewer (modeler.js, rules.js)</text>
<rect x="90" y="951" width="2286" height="165" fill="#ffffff" fill-opacity="0.25" stroke="#000000" stroke-width="1.5"/>
<rect x="50" y="951" width="40" height="165" fill="#f0f0f0" stroke="#000000" stroke-width="1.5"/>
<text x="70" y="1033.5" text-anchor="middle" dominant-baseline="middle" font-size="11" fill="#000000" transform="rotate(-90,70,1033.5)">Pipeline — Layout + Rendering (topology → ELK → coordinates → bpmn-xml → svg)</text>
<rect x="90" y="1118" width="2286" height="165" fill="#ffffff" fill-opacity="0.25" stroke="#000000" stroke-width="1.5"/>
<rect x="50" y="1118" width="40" height="165" fill="#f0f0f0" stroke="#000000" stroke-width="1.5"/>
<text x="70" y="1200.5" text-anchor="middle" dominant-baseline="middle" font-size="11" fill="#000000" transform="rotate(-90,70,1200.5)">Compliance Agent (compliance.js)</text>
<path d="M 150.4 241 L 236 241" stroke="#000000" stroke-width="1.5" fill="none"  marker-end="url(#seq-end)"/>
<path d="M 336 241 L 376 241 L 376 204 L 416 204" stroke="#000000" stroke-width="1.5" fill="none"  marker-end="url(#seq-end)"/>
<path d="M 516 204 L 609 204" stroke="#000000" stroke-width="1.5" fill="none"  marker-end="url(#seq-end)"/>
<path d="M 646 191 L 716 191 L 716 98 L 786 98" stroke="#000000" stroke-width="1.5" fill="none"  marker-end="url(#seq-end)"/>
<rect x="670.5" y="178" width="21" height="16" rx="2" fill="white" fill-opacity="0.9"/>
<text x="681" y="190" text-anchor="middle" font-size="10" fill="#000000">Ja</text>
<path d="M 646 191 L 726 191 L 726 241 L 806 241" stroke="#000000" stroke-width="1.5" fill="none"  marker-end="url(#seq-end)"/>
<rect x="669" y="178" width="34" height="16" rx="2" fill="white" fill-opacity="0.9"/>
<text x="686" y="190" text-anchor="middle" font-size="10" fill="#000000">Nein</text>
<path d="M 806 254 L 336 254" stroke="#000000" stroke-width="1.5" fill="none"  marker-end="url(#seq-end)"/>
<path d="M 156 704 L 236 704" stroke="#000000" stroke-width="1.5" fill="none"  marker-end="url(#seq-end)"/>
<path d="M 261 679 L 261 580 L 496 580 L 496 481" stroke="#000000" stroke-width="1.5" fill="none"  marker-end="url(#seq-end)"/>
<rect x="322.5" y="567" width="112" height="16" rx="2" fill="white" fill-opacity="0.9"/>
<text x="378.5" y="579" text-anchor="middle" font-size="10" fill="#000000">Natürlicher Text</text>
<path d="M 261 729 L 626 729 L 626 518" stroke="#000000" stroke-width="1.5" fill="none" marker-start="url(#seq-default-src)" marker-end="url(#seq-end)"/>
<rect x="390.8" y="716" width="105.5" height="16" rx="2" fill="white" fill-opacity="0.9"/>
<text x="443.5" y="728" text-anchor="middle" font-size="10" fill="#000000">Logic-Core JSON</text>
<path d="M 546 441 L 586 441 L 586 478 L 626 478" stroke="#000000" stroke-width="1.5" fill="none"  marker-end="url(#seq-end)"/>
<path d="M 726 518 L 726 1171 L 756 1171 L 756 1260 L 756 592 L 811 592" stroke="#000000" stroke-width="1.5" fill="none"  marker-end="url(#seq-end)"/>
<path d="M 811 592 L 811 981 L 1166 981" stroke="#000000" stroke-width="1.5" fill="none"  marker-end="url(#seq-end)"/>
<rect x="929.3" y="968" width="118.5" height="16" rx="2" fill="white" fill-opacity="0.9"/>
<text x="988.5" y="980" text-anchor="middle" font-size="10" fill="#000000">Valide (0 Errors)</text>
<path d="M 836 567 L 906 567 L 906 476 L 976 476" stroke="#000000" stroke-width="1.5" fill="none" marker-start="url(#seq-default-src)" marker-end="url(#seq-end)"/>
<rect x="818.3" y="554" width="105.5" height="16" rx="2" fill="white" fill-opacity="0.9"/>
<text x="871" y="566" text-anchor="middle" font-size="10" fill="#000000">Errors gefunden</text>
<path d="M 1001 501 L 1186 501 L 1186 503" stroke="#000000" stroke-width="1.5" fill="none"  marker-end="url(#seq-end)"/>
<rect x="998.5" y="488" width="190" height="16" rx="2" fill="white" fill-opacity="0.9"/>
<text x="1093.5" y="500" text-anchor="middle" font-size="10" fill="#000000">Iteration &lt; Max (Default: 3)</text>
<path d="M 1001 501 L 1001 1181 L 1056 1181 L 1056 1246 L 1056 1061 L 1166 1061" stroke="#000000" stroke-width="1.5" fill="none" marker-start="url(#seq-default-src)" marker-end="url(#seq-end)"/>
<rect x="914" y="1168" width="229" height="16" rx="2" fill="white" fill-opacity="0.9"/>
<text x="1028.5" y="1180" text-anchor="middle" font-size="10" fill="#000000">Max erreicht → weiter mit Warnings</text>
<path d="M 1186 463 L 956 463 L 956 478 L 726 478" stroke="#000000" stroke-width="1.5" fill="none"  marker-end="url(#seq-end)"/>
<path d="M 1266 1061 L 1346 1061" stroke="#000000" stroke-width="1.5" fill="none"  marker-end="url(#seq-end)"/>
<path d="M 1446 1061 L 1526 1061" stroke="#000000" stroke-width="1.5" fill="none"  marker-end="url(#seq-end)"/>
<path d="M 1626 1061 L 1706 1061" stroke="#000000" stroke-width="1.5" fill="none"  marker-end="url(#seq-end)"/>
<path d="M 1806 1061 L 1886 1061" stroke="#000000" stroke-width="1.5" fill="none"  marker-end="url(#seq-end)"/>
<path d="M 1986 1061 L 2066 1061" stroke="#000000" stroke-width="1.5" fill="none"  marker-end="url(#seq-end)"/>
<path d="M 2166 1061 L 2166 1259 L 2196 1259 L 2196 1283 L 2196 1228 L 2246 1228" stroke="#000000" stroke-width="1.5" fill="none"  marker-end="url(#seq-end)"/>
<path d="M 2246 1228 L 590 1228 L 590 894" stroke="#000000" stroke-width="1.5" fill="none"  marker-end="url(#seq-end)"/>
<path d="M 590 894 L 590 1283 L 640 1283 L 640 1269 L 640 814 L 670 814" stroke="#000000" stroke-width="1.5" fill="none"  marker-end="url(#seq-end)"/>
<path d="M 286 281 L 286 483.5 L 138 483.5 L 138 686" stroke="#000000" stroke-width="1.5" fill="none" stroke-dasharray="10,12" marker-start="url(#msg-start)" marker-end="url(#msg-end)"/>
<rect x="87.8" y="475.5" width="248.5" height="16" rx="2" fill="white" fill-opacity="0.9"/>
<text x="212" y="487.5" text-anchor="middle" font-size="10" fill="#000000">Prozessbeschreibung / Logic-Core JSON</text>
<path d="M 540 894 L 540 529 L 466 529 L 466 164" stroke="#000000" stroke-width="1.5" fill="none" stroke-dasharray="10,12" marker-start="url(#msg-start)" marker-end="url(#msg-end)"/>
<rect x="388.5" y="521" width="229" height="16" rx="2" fill="white" fill-opacity="0.9"/>
<text x="503" y="533" text-anchor="middle" font-size="10" fill="#000000">BPMN XML + SVG + Compliance-Report</text>
<path d="M 496 481 L 496 902 L 1213 902 L 1213 1323" stroke="#000000" stroke-width="1.5" fill="none" stroke-dasharray="10,12" marker-start="url(#msg-start)" marker-end="url(#msg-end)"/>
<rect x="749.8" y="894" width="209.5" height="16" rx="2" fill="white" fill-opacity="0.9"/>
<text x="854.5" y="906" text-anchor="middle" font-size="10" fill="#000000">System-Prompt + Few-Shot + Text</text>
<path d="M 1236 503 L 1236 913 L 1213 913 L 1213 1323" stroke="#000000" stroke-width="1.5" fill="none" stroke-dasharray="10,12" marker-start="url(#msg-start)" marker-end="url(#msg-end)"/>
<rect x="1136" y="905" width="177" height="16" rx="2" fill="white" fill-opacity="0.9"/>
<text x="1224.5" y="917" text-anchor="middle" font-size="10" fill="#000000">Logic-Core + Review-Issues</text>
<path d="M 1396 1061 L 1396 1242 L 1213 1242 L 1213 1423" stroke="#000000" stroke-width="1.5" fill="none" stroke-dasharray="10,12" marker-start="url(#msg-start)" marker-end="url(#msg-end)"/>
<rect x="1180.3" y="1234" width="248.5" height="16" rx="2" fill="white" fill-opacity="0.9"/>
<text x="1304.5" y="1246" text-anchor="middle" font-size="10" fill="#000000">ELK-Graph (Nodes, Edges, Constraints)</text>
<path d="M 1756 1061 L 1756 1292 L 1213 1292 L 1213 1523" stroke="#000000" stroke-width="1.5" fill="none" stroke-dasharray="10,12" marker-start="url(#msg-start)" marker-end="url(#msg-end)"/>
<rect x="1409" y="1284" width="151" height="16" rx="2" fill="white" fill-opacity="0.9"/>
<text x="1484.5" y="1296" text-anchor="middle" font-size="10" fill="#000000">CMOF-Objekte → toXML()</text>
<path d="M 1936 1061 L 1936 1292 L 1213 1292 L 1213 1523" stroke="#000000" stroke-width="1.5" fill="none" stroke-dasharray="10,12" marker-start="url(#msg-start)" marker-end="url(#msg-end)"/>
<rect x="1482.8" y="1284" width="183.5" height="16" rx="2" fill="white" fill-opacity="0.9"/>
<text x="1574.5" y="1296" text-anchor="middle" font-size="10" fill="#000000">XML → fromXML() Validierung</text>
<circle cx="138" cy="228" r="18" fill="#ffffff" fill-opacity="0.95" stroke="#000000" stroke-width="2"/>
<text x="138" y="266" text-anchor="middle" font-size="11" fill="#000000">Prozessbedarf</text>
<text x="138" y="279" text-anchor="middle" font-size="11" fill="#000000">erkannt</text>
<g><title>Der Benutzer erstellt eine natürlichsprachliche Prozessbeschreibung oder ein strukturiertes Logic-Core JSON. Eingabe über CLI, MCP-Server oder Orchestrator-API.</title>
<rect x="236" y="201" width="100" height="80" rx="10" ry="10" fill="#ffffff" fill-opacity="0.95" stroke="#000000" stroke-width="2"/>
<g><path d="m 251,213 c 0.909,-0.845 1.594,-2.049 1.594,-3.385 0,-2.554 -1.805,-4.622 -4.357,-4.622 -2.552,0 -4.288,2.068 -4.288,4.622 0,1.348 0.974,2.562 1.896,3.405 -0.529,0.187 -5.669,2.097 -5.794,4.756 v 6.718 h 17 v -6.718 c 0,-2.298 -5.528,-4.595 -6.051,-4.776 z m -8,6 l 0,5.5 m 11,0 l 0,-5" fill="#ffffff" stroke="#000000" stroke-width="0.5"/><path d="m 253.162,214.009 c 0,2.447 -2.158,4.431 -4.821,4.431 -2.665,0 -4.822,-1.981 -4.822,-4.431" fill="none" stroke="#000000" stroke-width="0.5"/><path d="m 244.1,209.2 c 0,0 2.251,-2.358 4.274,-1.177 2.024,1.181 4.221,1.537 4.124,0.965 -0.098,-0.57 -0.117,-3.791 -4.191,-4.136 -3.575,0.001 -4.208,3.367 -4.207,4.348 z" fill="#000000" stroke="#000000" stroke-width="0.5"/></g>
<text x="286" y="243" text-anchor="middle" dominant-baseline="middle" font-size="12" fill="#000000">Prozess</text>
<text x="286" y="257" text-anchor="middle" dominant-baseline="middle" font-size="12" fill="#000000">beschreiben</text>
</g>
<g><title>Ergebnis enthält: BPMN 2.0 XML (.bpmn), SVG-Vorschau (.svg), Compliance-Report, Validierungs-Warnings und Agent-History.</title>
<rect x="416" y="164" width="100" height="80" rx="10" ry="10" fill="#ffffff" fill-opacity="0.95" stroke="#000000" stroke-width="2"/>
<g><path d="m 431,176 c 0.909,-0.845 1.594,-2.049 1.594,-3.385 0,-2.554 -1.805,-4.622 -4.357,-4.622 -2.552,0 -4.288,2.068 -4.288,4.622 0,1.348 0.974,2.562 1.896,3.405 -0.529,0.187 -5.669,2.097 -5.794,4.756 v 6.718 h 17 v -6.718 c 0,-2.298 -5.528,-4.595 -6.051,-4.776 z m -8,6 l 0,5.5 m 11,0 l 0,-5" fill="#ffffff" stroke="#000000" stroke-width="0.5"/><path d="m 433.162,177.009 c 0,2.447 -2.158,4.431 -4.821,4.431 -2.665,0 -4.822,-1.981 -4.822,-4.431" fill="none" stroke="#000000" stroke-width="0.5"/><path d="m 424.1,172.2 c 0,0 2.251,-2.358 4.274,-1.177 2.024,1.181 4.221,1.537 4.124,0.965 -0.098,-0.57 -0.117,-3.791 -4.191,-4.136 -3.575,0.001 -4.208,3.367 -4.207,4.348 z" fill="#000000" stroke="#000000" stroke-width="0.5"/></g>
<text x="466" y="206" text-anchor="middle" dominant-baseline="middle" font-size="12" fill="#000000">BPMN-Diagramm</text>
<text x="466" y="220" text-anchor="middle" dominant-baseline="middle" font-size="12" fill="#000000">prüfen</text>
</g>
<polygon points="621,166 646,191 621,216 596,191" fill="#ffffff" fill-opacity="0.95" stroke="#000000" stroke-width="2"/>
<line x1="612" y1="182" x2="630" y2="200" stroke="#000000" stroke-width="3" stroke-linecap="round"/>
<line x1="630" y1="182" x2="612" y2="200" stroke="#000000" stroke-width="3" stroke-linecap="round"/>
<text x="621" y="236" text-anchor="middle" font-size="11" fill="#000000">Ergebnis</text>
<text x="621" y="249" text-anchor="middle" font-size="11" fill="#000000">akzeptabel?</text>
<circle cx="804" cy="98" r="18" fill="#ffffff" fill-opacity="0.95" stroke="#000000" stroke-width="4"/>
<text x="804" y="136" text-anchor="middle" font-size="11" fill="#000000">Diagramm</text>
<text x="804" y="149" text-anchor="middle" font-size="11" fill="#000000">finalisiert</text>
<g><title>Feedback einarbeiten: fehlende Schritte ergänzen, Rollen korrigieren, Gateways präzisieren.</title>
<rect x="806" y="201" width="100" height="80" rx="10" ry="10" fill="#ffffff" fill-opacity="0.95" stroke="#000000" stroke-width="2"/>
<g><path d="m 821,213 c 0.909,-0.845 1.594,-2.049 1.594,-3.385 0,-2.554 -1.805,-4.622 -4.357,-4.622 -2.552,0 -4.288,2.068 -4.288,4.622 0,1.348 0.974,2.562 1.896,3.405 -0.529,0.187 -5.669,2.097 -5.794,4.756 v 6.718 h 17 v -6.718 c 0,-2.298 -5.528,-4.595 -6.051,-4.776 z m -8,6 l 0,5.5 m 11,0 l 0,-5" fill="#ffffff" stroke="#000000" stroke-width="0.5"/><path d="m 823.162,214.009 c 0,2.447 -2.158,4.431 -4.821,4.431 -2.665,0 -4.822,-1.981 -4.822,-4.431" fill="none" stroke="#000000" stroke-width="0.5"/><path d="m 814.1,209.2 c 0,0 2.251,-2.358 4.274,-1.177 2.024,1.181 4.221,1.537 4.124,0.965 -0.098,-0.57 -0.117,-3.791 -4.191,-4.136 -3.575,0.001 -4.208,3.367 -4.207,4.348 z" fill="#000000" stroke="#000000" stroke-width="0.5"/></g>
<text x="856" y="243" text-anchor="middle" dominant-baseline="middle" font-size="12" fill="#000000">Beschreibung</text>
<text x="856" y="257" text-anchor="middle" dominant-baseline="middle" font-size="12" fill="#000000">anpassen</text>
</g>
<g><title>Orchestrator empfängt Anfrage: entweder natürlichsprachlicher Text oder strukturiertes Logic-Core JSON.</title>
<circle cx="138" cy="704" r="18" fill="#ffffff" fill-opacity="0.95" stroke="#000000" stroke-width="2"/>
<text x="138" y="742" text-anchor="middle" font-size="11" fill="#000000">Input empfangen</text>
</g>
<polygon points="261,679 286,704 261,729 236,704" fill="#ffffff" fill-opacity="0.95" stroke="#000000" stroke-width="2"/>
<line x1="252" y1="695" x2="270" y2="713" stroke="#000000" stroke-width="3" stroke-linecap="round"/>
<line x1="270" y1="695" x2="252" y2="713" stroke="#000000" stroke-width="3" stroke-linecap="round"/>
<text x="261" y="749" text-anchor="middle" font-size="11" fill="#000000">Input-Typ?</text>
<g><title>Reviewer Agent: Führt 22 Regeln in 4 Schichten aus. Soundness (S01-S11): Start/End-Events, Edge-Referenzen, Gateway-Balance, Boundary-Events. Style (M01-M08): Naming-Konventionen, Label-Vollständigkeit. Pragmatik (P01-P03): Komplexitätsmetriken. Workflow-Net (WF01-WF03): Petri-Net-Soundness. Profile konfigurierbar (default/strict).</title>
<rect x="626" y="438" width="100" height="80" rx="10" ry="10" fill="#ffffff" fill-opacity="0.95" stroke="#000000" stroke-width="2"/>
<g><path d="m 644,462 v -1.713 c 0.352,-0.071 0.704,-0.178 1.048,-0.321 0.344,-0.145 0.666,-0.321 0.966,-0.521 l 1.194,1.18 1.567,-1.577 -1.195,-1.18 c 0.403,-0.614 0.683,-1.299 0.825,-2.018 l 1.622,-0.01 v -2.22 l -1.637,0.01 c -0.073,-0.352 -0.178,-0.7 -0.324,-1.044 -0.145,-0.344 -0.321,-0.664 -0.523,-0.962 l 1.131,-1.136 -1.583,-1.563 -1.13,1.136 c -0.614,-0.401 -1.303,-0.681 -2.023,-0.822 l 0.009,-1.619 h -2.241 l 0.004,1.631 c -0.354,0.074 -0.705,0.18 -1.05,0.324 -0.344,0.144 -0.665,0.321 -0.964,0.52 l -1.17,-1.158 -1.567,1.579 1.168,1.157 c -0.403,0.613 -0.683,1.298 -0.825,2.017 l -1.659,0.003 v 2.222 l 1.672,-0.006 c 0.073,0.351 0.18,0.702 0.324,1.045 0.145,0.344 0.321,0.664 0.523,0.961 l -1.199,1.197 1.584,1.56 1.196,-1.193 c 0.614,0.403 1.303,0.682 2.023,0.823 l 0.001,1.699 h 2.227 z m 0.221,-3.996 c -1.789,0.75 -3.858,-0.093 -4.61,-1.874 -0.752,-1.783 0.091,-3.846 1.88,-4.596 1.788,-0.749 3.857,0.093 4.609,1.874 0.752,1.782 -0.091,3.846 -1.879,4.596 z" fill="#ffffff" stroke="#000000" stroke-width="0.5"/><path d="m 644.221,458.004 c -1.789,0.75 -3.858,-0.093 -4.61,-1.874 -0.752,-1.783 0.091,-3.846 1.88,-4.596 1.788,-0.749 3.857,0.093 4.609,1.874 0.752,1.782 -0.091,3.846 -1.879,4.596 z" fill="none" stroke="#000000" stroke-width="0.5"/><path d="m 649,466 v -1.713 c 0.352,-0.071 0.704,-0.178 1.048,-0.321 0.344,-0.145 0.666,-0.321 0.966,-0.521 l 1.194,1.18 1.567,-1.577 -1.195,-1.18 c 0.403,-0.614 0.683,-1.299 0.825,-2.018 l 1.622,-0.01 v -2.22 l -1.637,0.01 c -0.073,-0.352 -0.178,-0.7 -0.324,-1.044 -0.145,-0.344 -0.321,-0.664 -0.523,-0.962 l 1.131,-1.136 -1.583,-1.563 -1.13,1.136 c -0.614,-0.401 -1.303,-0.681 -2.023,-0.822 l 0.009,-1.619 h -2.241 l 0.004,1.631 c -0.354,0.074 -0.705,0.18 -1.05,0.324 -0.344,0.144 -0.665,0.321 -0.964,0.52 l -1.17,-1.158 -1.567,1.579 1.168,1.157 c -0.403,0.613 -0.683,1.298 -0.825,2.017 l -1.659,0.003 v 2.222 l 1.672,-0.006 c 0.073,0.351 0.18,0.702 0.324,1.045 0.145,0.344 0.321,0.664 0.523,0.961 l -1.199,1.197 1.584,1.56 1.196,-1.193 c 0.614,0.403 1.303,0.682 2.023,0.823 l 0.001,1.699 h 2.227 z m 0.221,-3.996 c -1.789,0.75 -3.858,-0.093 -4.61,-1.874 -0.752,-1.783 0.091,-3.846 1.88,-4.596 1.788,-0.749 3.857,0.093 4.609,1.874 0.752,1.782 -0.091,3.846 -1.879,4.596 z" fill="#ffffff" stroke="#000000" stroke-width="0.5"/><path d="m 649.221,462.004 c -1.789,0.75 -3.858,-0.093 -4.61,-1.874 -0.752,-1.783 0.091,-3.846 1.88,-4.596 1.788,-0.749 3.857,0.093 4.609,1.874 0.752,1.782 -0.091,3.846 -1.879,4.596 z" fill="#000000" stroke="#000000" stroke-width="0.5"/></g>
<text x="676" y="473" text-anchor="middle" dominant-baseline="middle" font-size="12" fill="#000000">Strukturelle</text>
<text x="676" y="487" text-anchor="middle" dominant-baseline="middle" font-size="12" fill="#000000">Validierung</text>
<text x="676" y="501" text-anchor="middle" dominant-baseline="middle" font-size="12" fill="#000000">durchführen</text>
</g>
<g><title>Modeler Agent im Extract-Modus: Baut LLM-Prompt mit System-Prompt (Logic-Core Schema + Regeln) + 5 Enterprise Few-Shot-Patterns aus references/prompt-template.md. Sendet an Claude API. Parst JSON-Antwort (auch aus Markdown-Codeblöcken).</title>
<rect x="446" y="401" width="100" height="80" rx="10" ry="10" fill="#ffffff" fill-opacity="0.95" stroke="#000000" stroke-width="2"/>
<g><path d="m 464,425 v -1.713 c 0.352,-0.071 0.704,-0.178 1.048,-0.321 0.344,-0.145 0.666,-0.321 0.966,-0.521 l 1.194,1.18 1.567,-1.577 -1.195,-1.18 c 0.403,-0.614 0.683,-1.299 0.825,-2.018 l 1.622,-0.01 v -2.22 l -1.637,0.01 c -0.073,-0.352 -0.178,-0.7 -0.324,-1.044 -0.145,-0.344 -0.321,-0.664 -0.523,-0.962 l 1.131,-1.136 -1.583,-1.563 -1.13,1.136 c -0.614,-0.401 -1.303,-0.681 -2.023,-0.822 l 0.009,-1.619 h -2.241 l 0.004,1.631 c -0.354,0.074 -0.705,0.18 -1.05,0.324 -0.344,0.144 -0.665,0.321 -0.964,0.52 l -1.17,-1.158 -1.567,1.579 1.168,1.157 c -0.403,0.613 -0.683,1.298 -0.825,2.017 l -1.659,0.003 v 2.222 l 1.672,-0.006 c 0.073,0.351 0.18,0.702 0.324,1.045 0.145,0.344 0.321,0.664 0.523,0.961 l -1.199,1.197 1.584,1.56 1.196,-1.193 c 0.614,0.403 1.303,0.682 2.023,0.823 l 0.001,1.699 h 2.227 z m 0.221,-3.996 c -1.789,0.75 -3.858,-0.093 -4.61,-1.874 -0.752,-1.783 0.091,-3.846 1.88,-4.596 1.788,-0.749 3.857,0.093 4.609,1.874 0.752,1.782 -0.091,3.846 -1.879,4.596 z" fill="#ffffff" stroke="#000000" stroke-width="0.5"/><path d="m 464.221,421.004 c -1.789,0.75 -3.858,-0.093 -4.61,-1.874 -0.752,-1.783 0.091,-3.846 1.88,-4.596 1.788,-0.749 3.857,0.093 4.609,1.874 0.752,1.782 -0.091,3.846 -1.879,4.596 z" fill="none" stroke="#000000" stroke-width="0.5"/><path d="m 469,429 v -1.713 c 0.352,-0.071 0.704,-0.178 1.048,-0.321 0.344,-0.145 0.666,-0.321 0.966,-0.521 l 1.194,1.18 1.567,-1.577 -1.195,-1.18 c 0.403,-0.614 0.683,-1.299 0.825,-2.018 l 1.622,-0.01 v -2.22 l -1.637,0.01 c -0.073,-0.352 -0.178,-0.7 -0.324,-1.044 -0.145,-0.344 -0.321,-0.664 -0.523,-0.962 l 1.131,-1.136 -1.583,-1.563 -1.13,1.136 c -0.614,-0.401 -1.303,-0.681 -2.023,-0.822 l 0.009,-1.619 h -2.241 l 0.004,1.631 c -0.354,0.074 -0.705,0.18 -1.05,0.324 -0.344,0.144 -0.665,0.321 -0.964,0.52 l -1.17,-1.158 -1.567,1.579 1.168,1.157 c -0.403,0.613 -0.683,1.298 -0.825,2.017 l -1.659,0.003 v 2.222 l 1.672,-0.006 c 0.073,0.351 0.18,0.702 0.324,1.045 0.145,0.344 0.321,0.664 0.523,0.961 l -1.199,1.197 1.584,1.56 1.196,-1.193 c 0.614,0.403 1.303,0.682 2.023,0.823 l 0.001,1.699 h 2.227 z m 0.221,-3.996 c -1.789,0.75 -3.858,-0.093 -4.61,-1.874 -0.752,-1.783 0.091,-3.846 1.88,-4.596 1.788,-0.749 3.857,0.093 4.609,1.874 0.752,1.782 -0.091,3.846 -1.879,4.596 z" fill="#ffffff" stroke="#000000" stroke-width="0.5"/><path d="m 469.221,425.004 c -1.789,0.75 -3.858,-0.093 -4.61,-1.874 -0.752,-1.783 0.091,-3.846 1.88,-4.596 1.788,-0.749 3.857,0.093 4.609,1.874 0.752,1.782 -0.091,3.846 -1.879,4.596 z" fill="#000000" stroke="#000000" stroke-width="0.5"/></g>
<text x="496" y="436" text-anchor="middle" dominant-baseline="middle" font-size="12" fill="#000000">Logic-Core aus</text>
<text x="496" y="450" text-anchor="middle" dominant-baseline="middle" font-size="12" fill="#000000">Text</text>
<text x="496" y="464" text-anchor="middle" dominant-baseline="middle" font-size="12" fill="#000000">extrahieren</text>
</g>
<polygon points="811,542 836,567 811,592 786,567" fill="#ffffff" fill-opacity="0.95" stroke="#000000" stroke-width="2"/>
<line x1="802" y1="558" x2="820" y2="576" stroke="#000000" stroke-width="3" stroke-linecap="round"/>
<line x1="820" y1="558" x2="802" y2="576" stroke="#000000" stroke-width="3" stroke-linecap="round"/>
<text x="811" y="612" text-anchor="middle" font-size="11" fill="#000000">Validierung</text>
<text x="811" y="625" text-anchor="middle" font-size="11" fill="#000000">bestanden?</text>
<g><title>topology.js: inferGatewayDirections() bestimmt Diverging/Converging aus In/Out-Edge-Verhältnis. sortNodesTopologically() für deterministische Reihenfolge. orderLanesByFlow() ordnet Lanes nach Hauptflussrichtung. identifyHappyPathNodes() markiert den Happy Path.</title>
<rect x="1166" y="981" width="100" height="80" rx="10" ry="10" fill="#ffffff" fill-opacity="0.95" stroke="#000000" stroke-width="2"/>
<g><path d="m 1184,1005 v -1.713 c 0.352,-0.071 0.704,-0.178 1.048,-0.321 0.344,-0.145 0.666,-0.321 0.966,-0.521 l 1.194,1.18 1.567,-1.577 -1.195,-1.18 c 0.403,-0.614 0.683,-1.299 0.825,-2.018 l 1.622,-0.01 v -2.22 l -1.637,0.01 c -0.073,-0.352 -0.178,-0.7 -0.324,-1.044 -0.145,-0.344 -0.321,-0.664 -0.523,-0.962 l 1.131,-1.136 -1.583,-1.563 -1.13,1.136 c -0.614,-0.401 -1.303,-0.681 -2.023,-0.822 l 0.009,-1.619 h -2.241 l 0.004,1.631 c -0.354,0.074 -0.705,0.18 -1.05,0.324 -0.344,0.144 -0.665,0.321 -0.964,0.52 l -1.17,-1.158 -1.567,1.579 1.168,1.157 c -0.403,0.613 -0.683,1.298 -0.825,2.017 l -1.659,0.003 v 2.222 l 1.672,-0.006 c 0.073,0.351 0.18,0.702 0.324,1.045 0.145,0.344 0.321,0.664 0.523,0.961 l -1.199,1.197 1.584,1.56 1.196,-1.193 c 0.614,0.403 1.303,0.682 2.023,0.823 l 0.001,1.699 h 2.227 z m 0.221,-3.996 c -1.789,0.75 -3.858,-0.093 -4.61,-1.874 -0.752,-1.783 0.091,-3.846 1.88,-4.596 1.788,-0.749 3.857,0.093 4.609,1.874 0.752,1.782 -0.091,3.846 -1.879,4.596 z" fill="#ffffff" stroke="#000000" stroke-width="0.5"/><path d="m 1184.221,1001.004 c -1.789,0.75 -3.858,-0.093 -4.61,-1.874 -0.752,-1.783 0.091,-3.846 1.88,-4.596 1.788,-0.749 3.857,0.093 4.609,1.874 0.752,1.782 -0.091,3.846 -1.879,4.596 z" fill="none" stroke="#000000" stroke-width="0.5"/><path d="m 1189,1009 v -1.713 c 0.352,-0.071 0.704,-0.178 1.048,-0.321 0.344,-0.145 0.666,-0.321 0.966,-0.521 l 1.194,1.18 1.567,-1.577 -1.195,-1.18 c 0.403,-0.614 0.683,-1.299 0.825,-2.018 l 1.622,-0.01 v -2.22 l -1.637,0.01 c -0.073,-0.352 -0.178,-0.7 -0.324,-1.044 -0.145,-0.344 -0.321,-0.664 -0.523,-0.962 l 1.131,-1.136 -1.583,-1.563 -1.13,1.136 c -0.614,-0.401 -1.303,-0.681 -2.023,-0.822 l 0.009,-1.619 h -2.241 l 0.004,1.631 c -0.354,0.074 -0.705,0.18 -1.05,0.324 -0.344,0.144 -0.665,0.321 -0.964,0.52 l -1.17,-1.158 -1.567,1.579 1.168,1.157 c -0.403,0.613 -0.683,1.298 -0.825,2.017 l -1.659,0.003 v 2.222 l 1.672,-0.006 c 0.073,0.351 0.18,0.702 0.324,1.045 0.145,0.344 0.321,0.664 0.523,0.961 l -1.199,1.197 1.584,1.56 1.196,-1.193 c 0.614,0.403 1.303,0.682 2.023,0.823 l 0.001,1.699 h 2.227 z m 0.221,-3.996 c -1.789,0.75 -3.858,-0.093 -4.61,-1.874 -0.752,-1.783 0.091,-3.846 1.88,-4.596 1.788,-0.749 3.857,0.093 4.609,1.874 0.752,1.782 -0.091,3.846 -1.879,4.596 z" fill="#ffffff" stroke="#000000" stroke-width="0.5"/><path d="m 1189.221,1005.004 c -1.789,0.75 -3.858,-0.093 -4.61,-1.874 -0.752,-1.783 0.091,-3.846 1.88,-4.596 1.788,-0.749 3.857,0.093 4.609,1.874 0.752,1.782 -0.091,3.846 -1.879,4.596 z" fill="#000000" stroke="#000000" stroke-width="0.5"/></g>
<text x="1216" y="1023" text-anchor="middle" dominant-baseline="middle" font-size="12" fill="#000000">Topologie</text>
<text x="1216" y="1037" text-anchor="middle" dominant-baseline="middle" font-size="12" fill="#000000">inferieren</text>
</g>
<polygon points="1001,451 1026,476 1001,501 976,476" fill="#ffffff" fill-opacity="0.95" stroke="#000000" stroke-width="2"/>
<line x1="992" y1="467" x2="1010" y2="485" stroke="#000000" stroke-width="3" stroke-linecap="round"/>
<line x1="1010" y1="467" x2="992" y2="485" stroke="#000000" stroke-width="3" stroke-linecap="round"/>
<text x="1001" y="521" text-anchor="middle" font-size="11" fill="#000000">Max Iterationen</text>
<text x="1001" y="534" text-anchor="middle" font-size="11" fill="#000000">erreicht?</text>
<g><title>layout.js: logicCoreToElk() konvertiert Logic-Core in ELK-Graph. Nodes bekommen Dimensionen aus config.json. Events/Gateways: externe Label-Höhe. Start→FIRST, End→LAST Layer-Constraint. Lanes via elk.partitioning. Multi-Pool via rectpacking. runElkLayout(): Sugiyama hierarchisch, Direction RIGHT, ORTHOGONAL Routing, LAYER_SWEEP Crossing-Minimierung, NETWORK_SIMPLEX Node-Placement.</title>
<rect x="1346" y="981" width="100" height="80" rx="10" ry="10" fill="#ffffff" fill-opacity="0.95" stroke="#000000" stroke-width="2"/>
<g><path d="m 1364,1005 v -1.713 c 0.352,-0.071 0.704,-0.178 1.048,-0.321 0.344,-0.145 0.666,-0.321 0.966,-0.521 l 1.194,1.18 1.567,-1.577 -1.195,-1.18 c 0.403,-0.614 0.683,-1.299 0.825,-2.018 l 1.622,-0.01 v -2.22 l -1.637,0.01 c -0.073,-0.352 -0.178,-0.7 -0.324,-1.044 -0.145,-0.344 -0.321,-0.664 -0.523,-0.962 l 1.131,-1.136 -1.583,-1.563 -1.13,1.136 c -0.614,-0.401 -1.303,-0.681 -2.023,-0.822 l 0.009,-1.619 h -2.241 l 0.004,1.631 c -0.354,0.074 -0.705,0.18 -1.05,0.324 -0.344,0.144 -0.665,0.321 -0.964,0.52 l -1.17,-1.158 -1.567,1.579 1.168,1.157 c -0.403,0.613 -0.683,1.298 -0.825,2.017 l -1.659,0.003 v 2.222 l 1.672,-0.006 c 0.073,0.351 0.18,0.702 0.324,1.045 0.145,0.344 0.321,0.664 0.523,0.961 l -1.199,1.197 1.584,1.56 1.196,-1.193 c 0.614,0.403 1.303,0.682 2.023,0.823 l 0.001,1.699 h 2.227 z m 0.221,-3.996 c -1.789,0.75 -3.858,-0.093 -4.61,-1.874 -0.752,-1.783 0.091,-3.846 1.88,-4.596 1.788,-0.749 3.857,0.093 4.609,1.874 0.752,1.782 -0.091,3.846 -1.879,4.596 z" fill="#ffffff" stroke="#000000" stroke-width="0.5"/><path d="m 1364.221,1001.004 c -1.789,0.75 -3.858,-0.093 -4.61,-1.874 -0.752,-1.783 0.091,-3.846 1.88,-4.596 1.788,-0.749 3.857,0.093 4.609,1.874 0.752,1.782 -0.091,3.846 -1.879,4.596 z" fill="none" stroke="#000000" stroke-width="0.5"/><path d="m 1369,1009 v -1.713 c 0.352,-0.071 0.704,-0.178 1.048,-0.321 0.344,-0.145 0.666,-0.321 0.966,-0.521 l 1.194,1.18 1.567,-1.577 -1.195,-1.18 c 0.403,-0.614 0.683,-1.299 0.825,-2.018 l 1.622,-0.01 v -2.22 l -1.637,0.01 c -0.073,-0.352 -0.178,-0.7 -0.324,-1.044 -0.145,-0.344 -0.321,-0.664 -0.523,-0.962 l 1.131,-1.136 -1.583,-1.563 -1.13,1.136 c -0.614,-0.401 -1.303,-0.681 -2.023,-0.822 l 0.009,-1.619 h -2.241 l 0.004,1.631 c -0.354,0.074 -0.705,0.18 -1.05,0.324 -0.344,0.144 -0.665,0.321 -0.964,0.52 l -1.17,-1.158 -1.567,1.579 1.168,1.157 c -0.403,0.613 -0.683,1.298 -0.825,2.017 l -1.659,0.003 v 2.222 l 1.672,-0.006 c 0.073,0.351 0.18,0.702 0.324,1.045 0.145,0.344 0.321,0.664 0.523,0.961 l -1.199,1.197 1.584,1.56 1.196,-1.193 c 0.614,0.403 1.303,0.682 2.023,0.823 l 0.001,1.699 h 2.227 z m 0.221,-3.996 c -1.789,0.75 -3.858,-0.093 -4.61,-1.874 -0.752,-1.783 0.091,-3.846 1.88,-4.596 1.788,-0.749 3.857,0.093 4.609,1.874 0.752,1.782 -0.091,3.846 -1.879,4.596 z" fill="#ffffff" stroke="#000000" stroke-width="0.5"/><path d="m 1369.221,1005.004 c -1.789,0.75 -3.858,-0.093 -4.61,-1.874 -0.752,-1.783 0.091,-3.846 1.88,-4.596 1.788,-0.749 3.857,0.093 4.609,1.874 0.752,1.782 -0.091,3.846 -1.879,4.596 z" fill="#000000" stroke="#000000" stroke-width="0.5"/></g>
<text x="1396" y="1016" text-anchor="middle" dominant-baseline="middle" font-size="12" fill="#000000">ELK Sugiyama</text>
<text x="1396" y="1030" text-anchor="middle" dominant-baseline="middle" font-size="12" fill="#000000">Layout</text>
<text x="1396" y="1044" text-anchor="middle" dominant-baseline="middle" font-size="12" fill="#000000">berechnen</text>
</g>
<g><title>Modeler Agent im Refine-Modus: Sendet bisheriges Logic-Core + Review-Issues (Severity + Problem-Beschreibung) an LLM. Claude korrigiert strukturelle Fehler und gibt verbessertes JSON zurück. Max 3 Iterationen (konfigurierbar via maxReviewIterations).</title>
<rect x="1186" y="423" width="100" height="80" rx="10" ry="10" fill="#ffffff" fill-opacity="0.95" stroke="#000000" stroke-width="2"/>
<g><path d="m 1204,447 v -1.713 c 0.352,-0.071 0.704,-0.178 1.048,-0.321 0.344,-0.145 0.666,-0.321 0.966,-0.521 l 1.194,1.18 1.567,-1.577 -1.195,-1.18 c 0.403,-0.614 0.683,-1.299 0.825,-2.018 l 1.622,-0.01 v -2.22 l -1.637,0.01 c -0.073,-0.352 -0.178,-0.7 -0.324,-1.044 -0.145,-0.344 -0.321,-0.664 -0.523,-0.962 l 1.131,-1.136 -1.583,-1.563 -1.13,1.136 c -0.614,-0.401 -1.303,-0.681 -2.023,-0.822 l 0.009,-1.619 h -2.241 l 0.004,1.631 c -0.354,0.074 -0.705,0.18 -1.05,0.324 -0.344,0.144 -0.665,0.321 -0.964,0.52 l -1.17,-1.158 -1.567,1.579 1.168,1.157 c -0.403,0.613 -0.683,1.298 -0.825,2.017 l -1.659,0.003 v 2.222 l 1.672,-0.006 c 0.073,0.351 0.18,0.702 0.324,1.045 0.145,0.344 0.321,0.664 0.523,0.961 l -1.199,1.197 1.584,1.56 1.196,-1.193 c 0.614,0.403 1.303,0.682 2.023,0.823 l 0.001,1.699 h 2.227 z m 0.221,-3.996 c -1.789,0.75 -3.858,-0.093 -4.61,-1.874 -0.752,-1.783 0.091,-3.846 1.88,-4.596 1.788,-0.749 3.857,0.093 4.609,1.874 0.752,1.782 -0.091,3.846 -1.879,4.596 z" fill="#ffffff" stroke="#000000" stroke-width="0.5"/><path d="m 1204.221,443.004 c -1.789,0.75 -3.858,-0.093 -4.61,-1.874 -0.752,-1.783 0.091,-3.846 1.88,-4.596 1.788,-0.749 3.857,0.093 4.609,1.874 0.752,1.782 -0.091,3.846 -1.879,4.596 z" fill="none" stroke="#000000" stroke-width="0.5"/><path d="m 1209,451 v -1.713 c 0.352,-0.071 0.704,-0.178 1.048,-0.321 0.344,-0.145 0.666,-0.321 0.966,-0.521 l 1.194,1.18 1.567,-1.577 -1.195,-1.18 c 0.403,-0.614 0.683,-1.299 0.825,-2.018 l 1.622,-0.01 v -2.22 l -1.637,0.01 c -0.073,-0.352 -0.178,-0.7 -0.324,-1.044 -0.145,-0.344 -0.321,-0.664 -0.523,-0.962 l 1.131,-1.136 -1.583,-1.563 -1.13,1.136 c -0.614,-0.401 -1.303,-0.681 -2.023,-0.822 l 0.009,-1.619 h -2.241 l 0.004,1.631 c -0.354,0.074 -0.705,0.18 -1.05,0.324 -0.344,0.144 -0.665,0.321 -0.964,0.52 l -1.17,-1.158 -1.567,1.579 1.168,1.157 c -0.403,0.613 -0.683,1.298 -0.825,2.017 l -1.659,0.003 v 2.222 l 1.672,-0.006 c 0.073,0.351 0.18,0.702 0.324,1.045 0.145,0.344 0.321,0.664 0.523,0.961 l -1.199,1.197 1.584,1.56 1.196,-1.193 c 0.614,0.403 1.303,0.682 2.023,0.823 l 0.001,1.699 h 2.227 z m 0.221,-3.996 c -1.789,0.75 -3.858,-0.093 -4.61,-1.874 -0.752,-1.783 0.091,-3.846 1.88,-4.596 1.788,-0.749 3.857,0.093 4.609,1.874 0.752,1.782 -0.091,3.846 -1.879,4.596 z" fill="#ffffff" stroke="#000000" stroke-width="0.5"/><path d="m 1209.221,447.004 c -1.789,0.75 -3.858,-0.093 -4.61,-1.874 -0.752,-1.783 0.091,-3.846 1.88,-4.596 1.788,-0.749 3.857,0.093 4.609,1.874 0.752,1.782 -0.091,3.846 -1.879,4.596 z" fill="#000000" stroke="#000000" stroke-width="0.5"/></g>
<text x="1236" y="465" text-anchor="middle" dominant-baseline="middle" font-size="12" fill="#000000">Logic-Core</text>
<text x="1236" y="479" text-anchor="middle" dominant-baseline="middle" font-size="12" fill="#000000">verfeinern</text>
</g>
<g><title>coordinates.js — 10 Post-Processing-Phasen: §5.0 Lane-Bounds aus Node-Positionen, §5.0b Pool-Breitenausgleich, §5.0b2 Collapsed-Pool-Positionierung, §5.0c Happy-Path Y-Leveling, §5.0d Fan-Out Alignment, §5.0e Edge-Route-Compaction, §5.0f Cross-Lane Deconfliction, §5.1 Orthogonales Endpoint-Clipping, §5.2 Synthetisches Routing, §5.3 Force Orthogonal, §5.5 Zigzag-Cleanup.</title>
<rect x="1526" y="981" width="100" height="80" rx="10" ry="10" fill="#ffffff" fill-opacity="0.95" stroke="#000000" stroke-width="2"/>
<g><path d="m 1544,1005 v -1.713 c 0.352,-0.071 0.704,-0.178 1.048,-0.321 0.344,-0.145 0.666,-0.321 0.966,-0.521 l 1.194,1.18 1.567,-1.577 -1.195,-1.18 c 0.403,-0.614 0.683,-1.299 0.825,-2.018 l 1.622,-0.01 v -2.22 l -1.637,0.01 c -0.073,-0.352 -0.178,-0.7 -0.324,-1.044 -0.145,-0.344 -0.321,-0.664 -0.523,-0.962 l 1.131,-1.136 -1.583,-1.563 -1.13,1.136 c -0.614,-0.401 -1.303,-0.681 -2.023,-0.822 l 0.009,-1.619 h -2.241 l 0.004,1.631 c -0.354,0.074 -0.705,0.18 -1.05,0.324 -0.344,0.144 -0.665,0.321 -0.964,0.52 l -1.17,-1.158 -1.567,1.579 1.168,1.157 c -0.403,0.613 -0.683,1.298 -0.825,2.017 l -1.659,0.003 v 2.222 l 1.672,-0.006 c 0.073,0.351 0.18,0.702 0.324,1.045 0.145,0.344 0.321,0.664 0.523,0.961 l -1.199,1.197 1.584,1.56 1.196,-1.193 c 0.614,0.403 1.303,0.682 2.023,0.823 l 0.001,1.699 h 2.227 z m 0.221,-3.996 c -1.789,0.75 -3.858,-0.093 -4.61,-1.874 -0.752,-1.783 0.091,-3.846 1.88,-4.596 1.788,-0.749 3.857,0.093 4.609,1.874 0.752,1.782 -0.091,3.846 -1.879,4.596 z" fill="#ffffff" stroke="#000000" stroke-width="0.5"/><path d="m 1544.221,1001.004 c -1.789,0.75 -3.858,-0.093 -4.61,-1.874 -0.752,-1.783 0.091,-3.846 1.88,-4.596 1.788,-0.749 3.857,0.093 4.609,1.874 0.752,1.782 -0.091,3.846 -1.879,4.596 z" fill="none" stroke="#000000" stroke-width="0.5"/><path d="m 1549,1009 v -1.713 c 0.352,-0.071 0.704,-0.178 1.048,-0.321 0.344,-0.145 0.666,-0.321 0.966,-0.521 l 1.194,1.18 1.567,-1.577 -1.195,-1.18 c 0.403,-0.614 0.683,-1.299 0.825,-2.018 l 1.622,-0.01 v -2.22 l -1.637,0.01 c -0.073,-0.352 -0.178,-0.7 -0.324,-1.044 -0.145,-0.344 -0.321,-0.664 -0.523,-0.962 l 1.131,-1.136 -1.583,-1.563 -1.13,1.136 c -0.614,-0.401 -1.303,-0.681 -2.023,-0.822 l 0.009,-1.619 h -2.241 l 0.004,1.631 c -0.354,0.074 -0.705,0.18 -1.05,0.324 -0.344,0.144 -0.665,0.321 -0.964,0.52 l -1.17,-1.158 -1.567,1.579 1.168,1.157 c -0.403,0.613 -0.683,1.298 -0.825,2.017 l -1.659,0.003 v 2.222 l 1.672,-0.006 c 0.073,0.351 0.18,0.702 0.324,1.045 0.145,0.344 0.321,0.664 0.523,0.961 l -1.199,1.197 1.584,1.56 1.196,-1.193 c 0.614,0.403 1.303,0.682 2.023,0.823 l 0.001,1.699 h 2.227 z m 0.221,-3.996 c -1.789,0.75 -3.858,-0.093 -4.61,-1.874 -0.752,-1.783 0.091,-3.846 1.88,-4.596 1.788,-0.749 3.857,0.093 4.609,1.874 0.752,1.782 -0.091,3.846 -1.879,4.596 z" fill="#ffffff" stroke="#000000" stroke-width="0.5"/><path d="m 1549.221,1005.004 c -1.789,0.75 -3.858,-0.093 -4.61,-1.874 -0.752,-1.783 0.091,-3.846 1.88,-4.596 1.788,-0.749 3.857,0.093 4.609,1.874 0.752,1.782 -0.091,3.846 -1.879,4.596 z" fill="#000000" stroke="#000000" stroke-width="0.5"/></g>
<text x="1576" y="1023" text-anchor="middle" dominant-baseline="middle" font-size="12" fill="#000000">Koordinaten</text>
<text x="1576" y="1037" text-anchor="middle" dominant-baseline="middle" font-size="12" fill="#000000">transformieren</text>
</g>
<g><title>bpmn-xml.js via bpmn-moddle: Erzeugt typisierte CMOF-Objekte (moddle.create). Semantic Model: Definitions, Process, FlowNodes, SequenceFlows. Diagram Interchange: BPMNDiagram, BPMNPlane, BPMNShape mit Bounds, BPMNEdge mit Waypoints. incoming/outgoing-Referenzen (Industriekonvention). OMG BPMN 2.0.2 konform (ISO/IEC 19510:2013).</title>
<rect x="1706" y="981" width="100" height="80" rx="10" ry="10" fill="#ffffff" fill-opacity="0.95" stroke="#000000" stroke-width="2"/>
<g><path d="m 1724,1005 v -1.713 c 0.352,-0.071 0.704,-0.178 1.048,-0.321 0.344,-0.145 0.666,-0.321 0.966,-0.521 l 1.194,1.18 1.567,-1.577 -1.195,-1.18 c 0.403,-0.614 0.683,-1.299 0.825,-2.018 l 1.622,-0.01 v -2.22 l -1.637,0.01 c -0.073,-0.352 -0.178,-0.7 -0.324,-1.044 -0.145,-0.344 -0.321,-0.664 -0.523,-0.962 l 1.131,-1.136 -1.583,-1.563 -1.13,1.136 c -0.614,-0.401 -1.303,-0.681 -2.023,-0.822 l 0.009,-1.619 h -2.241 l 0.004,1.631 c -0.354,0.074 -0.705,0.18 -1.05,0.324 -0.344,0.144 -0.665,0.321 -0.964,0.52 l -1.17,-1.158 -1.567,1.579 1.168,1.157 c -0.403,0.613 -0.683,1.298 -0.825,2.017 l -1.659,0.003 v 2.222 l 1.672,-0.006 c 0.073,0.351 0.18,0.702 0.324,1.045 0.145,0.344 0.321,0.664 0.523,0.961 l -1.199,1.197 1.584,1.56 1.196,-1.193 c 0.614,0.403 1.303,0.682 2.023,0.823 l 0.001,1.699 h 2.227 z m 0.221,-3.996 c -1.789,0.75 -3.858,-0.093 -4.61,-1.874 -0.752,-1.783 0.091,-3.846 1.88,-4.596 1.788,-0.749 3.857,0.093 4.609,1.874 0.752,1.782 -0.091,3.846 -1.879,4.596 z" fill="#ffffff" stroke="#000000" stroke-width="0.5"/><path d="m 1724.221,1001.004 c -1.789,0.75 -3.858,-0.093 -4.61,-1.874 -0.752,-1.783 0.091,-3.846 1.88,-4.596 1.788,-0.749 3.857,0.093 4.609,1.874 0.752,1.782 -0.091,3.846 -1.879,4.596 z" fill="none" stroke="#000000" stroke-width="0.5"/><path d="m 1729,1009 v -1.713 c 0.352,-0.071 0.704,-0.178 1.048,-0.321 0.344,-0.145 0.666,-0.321 0.966,-0.521 l 1.194,1.18 1.567,-1.577 -1.195,-1.18 c 0.403,-0.614 0.683,-1.299 0.825,-2.018 l 1.622,-0.01 v -2.22 l -1.637,0.01 c -0.073,-0.352 -0.178,-0.7 -0.324,-1.044 -0.145,-0.344 -0.321,-0.664 -0.523,-0.962 l 1.131,-1.136 -1.583,-1.563 -1.13,1.136 c -0.614,-0.401 -1.303,-0.681 -2.023,-0.822 l 0.009,-1.619 h -2.241 l 0.004,1.631 c -0.354,0.074 -0.705,0.18 -1.05,0.324 -0.344,0.144 -0.665,0.321 -0.964,0.52 l -1.17,-1.158 -1.567,1.579 1.168,1.157 c -0.403,0.613 -0.683,1.298 -0.825,2.017 l -1.659,0.003 v 2.222 l 1.672,-0.006 c 0.073,0.351 0.18,0.702 0.324,1.045 0.145,0.344 0.321,0.664 0.523,0.961 l -1.199,1.197 1.584,1.56 1.196,-1.193 c 0.614,0.403 1.303,0.682 2.023,0.823 l 0.001,1.699 h 2.227 z m 0.221,-3.996 c -1.789,0.75 -3.858,-0.093 -4.61,-1.874 -0.752,-1.783 0.091,-3.846 1.88,-4.596 1.788,-0.749 3.857,0.093 4.609,1.874 0.752,1.782 -0.091,3.846 -1.879,4.596 z" fill="#ffffff" stroke="#000000" stroke-width="0.5"/><path d="m 1729.221,1005.004 c -1.789,0.75 -3.858,-0.093 -4.61,-1.874 -0.752,-1.783 0.091,-3.846 1.88,-4.596 1.788,-0.749 3.857,0.093 4.609,1.874 0.752,1.782 -0.091,3.846 -1.879,4.596 z" fill="#000000" stroke="#000000" stroke-width="0.5"/></g>
<text x="1756" y="1023" text-anchor="middle" dominant-baseline="middle" font-size="12" fill="#000000">BPMN 2.0 XML</text>
<text x="1756" y="1037" text-anchor="middle" dominant-baseline="middle" font-size="12" fill="#000000">erzeugen</text>
</g>
<g><title>validateBpmnXml(): Parst erzeugtes XML zurück durch moddle.fromXML(). 0 Warnings = strukturell korrekt. Erkennt: fehlende Namespace-Deklarationen, ungültige Attribut-Typen, nicht auflösbare Referenzen, unbekannte Elemente.</title>
<rect x="1886" y="981" width="100" height="80" rx="10" ry="10" fill="#ffffff" fill-opacity="0.95" stroke="#000000" stroke-width="2"/>
<g><path d="m 1904,1005 v -1.713 c 0.352,-0.071 0.704,-0.178 1.048,-0.321 0.344,-0.145 0.666,-0.321 0.966,-0.521 l 1.194,1.18 1.567,-1.577 -1.195,-1.18 c 0.403,-0.614 0.683,-1.299 0.825,-2.018 l 1.622,-0.01 v -2.22 l -1.637,0.01 c -0.073,-0.352 -0.178,-0.7 -0.324,-1.044 -0.145,-0.344 -0.321,-0.664 -0.523,-0.962 l 1.131,-1.136 -1.583,-1.563 -1.13,1.136 c -0.614,-0.401 -1.303,-0.681 -2.023,-0.822 l 0.009,-1.619 h -2.241 l 0.004,1.631 c -0.354,0.074 -0.705,0.18 -1.05,0.324 -0.344,0.144 -0.665,0.321 -0.964,0.52 l -1.17,-1.158 -1.567,1.579 1.168,1.157 c -0.403,0.613 -0.683,1.298 -0.825,2.017 l -1.659,0.003 v 2.222 l 1.672,-0.006 c 0.073,0.351 0.18,0.702 0.324,1.045 0.145,0.344 0.321,0.664 0.523,0.961 l -1.199,1.197 1.584,1.56 1.196,-1.193 c 0.614,0.403 1.303,0.682 2.023,0.823 l 0.001,1.699 h 2.227 z m 0.221,-3.996 c -1.789,0.75 -3.858,-0.093 -4.61,-1.874 -0.752,-1.783 0.091,-3.846 1.88,-4.596 1.788,-0.749 3.857,0.093 4.609,1.874 0.752,1.782 -0.091,3.846 -1.879,4.596 z" fill="#ffffff" stroke="#000000" stroke-width="0.5"/><path d="m 1904.221,1001.004 c -1.789,0.75 -3.858,-0.093 -4.61,-1.874 -0.752,-1.783 0.091,-3.846 1.88,-4.596 1.788,-0.749 3.857,0.093 4.609,1.874 0.752,1.782 -0.091,3.846 -1.879,4.596 z" fill="none" stroke="#000000" stroke-width="0.5"/><path d="m 1909,1009 v -1.713 c 0.352,-0.071 0.704,-0.178 1.048,-0.321 0.344,-0.145 0.666,-0.321 0.966,-0.521 l 1.194,1.18 1.567,-1.577 -1.195,-1.18 c 0.403,-0.614 0.683,-1.299 0.825,-2.018 l 1.622,-0.01 v -2.22 l -1.637,0.01 c -0.073,-0.352 -0.178,-0.7 -0.324,-1.044 -0.145,-0.344 -0.321,-0.664 -0.523,-0.962 l 1.131,-1.136 -1.583,-1.563 -1.13,1.136 c -0.614,-0.401 -1.303,-0.681 -2.023,-0.822 l 0.009,-1.619 h -2.241 l 0.004,1.631 c -0.354,0.074 -0.705,0.18 -1.05,0.324 -0.344,0.144 -0.665,0.321 -0.964,0.52 l -1.17,-1.158 -1.567,1.579 1.168,1.157 c -0.403,0.613 -0.683,1.298 -0.825,2.017 l -1.659,0.003 v 2.222 l 1.672,-0.006 c 0.073,0.351 0.18,0.702 0.324,1.045 0.145,0.344 0.321,0.664 0.523,0.961 l -1.199,1.197 1.584,1.56 1.196,-1.193 c 0.614,0.403 1.303,0.682 2.023,0.823 l 0.001,1.699 h 2.227 z m 0.221,-3.996 c -1.789,0.75 -3.858,-0.093 -4.61,-1.874 -0.752,-1.783 0.091,-3.846 1.88,-4.596 1.788,-0.749 3.857,0.093 4.609,1.874 0.752,1.782 -0.091,3.846 -1.879,4.596 z" fill="#ffffff" stroke="#000000" stroke-width="0.5"/><path d="m 1909.221,1005.004 c -1.789,0.75 -3.858,-0.093 -4.61,-1.874 -0.752,-1.783 0.091,-3.846 1.88,-4.596 1.788,-0.749 3.857,0.093 4.609,1.874 0.752,1.782 -0.091,3.846 -1.879,4.596 z" fill="#000000" stroke="#000000" stroke-width="0.5"/></g>
<text x="1936" y="1023" text-anchor="middle" dominant-baseline="middle" font-size="12" fill="#000000">Round-Trip</text>
<text x="1936" y="1037" text-anchor="middle" dominant-baseline="middle" font-size="12" fill="#000000">validieren</text>
</g>
<g><title>svg.js + icons.js: Standalone-SVG ohne externe Dependencies. Pools/Lanes mit rotiertem Header. Events mit Marker-Icons (Message, Timer, Error, Signal, Compensation, Link, Terminate). Gateways mit Marker (X, +, O, Pentagon). Tasks mit Type-Icon + Bottom-Markers (Loop, MI-Parallel, MI-Sequential, Ad-Hoc, Compensation). Edges mit Arrow-Markern. Text-Wrapping mit automatischem Zeilenumbruch.</title>
<rect x="2066" y="981" width="100" height="80" rx="10" ry="10" fill="#ffffff" fill-opacity="0.95" stroke="#000000" stroke-width="2"/>
<g><path d="m 2084,1005 v -1.713 c 0.352,-0.071 0.704,-0.178 1.048,-0.321 0.344,-0.145 0.666,-0.321 0.966,-0.521 l 1.194,1.18 1.567,-1.577 -1.195,-1.18 c 0.403,-0.614 0.683,-1.299 0.825,-2.018 l 1.622,-0.01 v -2.22 l -1.637,0.01 c -0.073,-0.352 -0.178,-0.7 -0.324,-1.044 -0.145,-0.344 -0.321,-0.664 -0.523,-0.962 l 1.131,-1.136 -1.583,-1.563 -1.13,1.136 c -0.614,-0.401 -1.303,-0.681 -2.023,-0.822 l 0.009,-1.619 h -2.241 l 0.004,1.631 c -0.354,0.074 -0.705,0.18 -1.05,0.324 -0.344,0.144 -0.665,0.321 -0.964,0.52 l -1.17,-1.158 -1.567,1.579 1.168,1.157 c -0.403,0.613 -0.683,1.298 -0.825,2.017 l -1.659,0.003 v 2.222 l 1.672,-0.006 c 0.073,0.351 0.18,0.702 0.324,1.045 0.145,0.344 0.321,0.664 0.523,0.961 l -1.199,1.197 1.584,1.56 1.196,-1.193 c 0.614,0.403 1.303,0.682 2.023,0.823 l 0.001,1.699 h 2.227 z m 0.221,-3.996 c -1.789,0.75 -3.858,-0.093 -4.61,-1.874 -0.752,-1.783 0.091,-3.846 1.88,-4.596 1.788,-0.749 3.857,0.093 4.609,1.874 0.752,1.782 -0.091,3.846 -1.879,4.596 z" fill="#ffffff" stroke="#000000" stroke-width="0.5"/><path d="m 2084.221,1001.004 c -1.789,0.75 -3.858,-0.093 -4.61,-1.874 -0.752,-1.783 0.091,-3.846 1.88,-4.596 1.788,-0.749 3.857,0.093 4.609,1.874 0.752,1.782 -0.091,3.846 -1.879,4.596 z" fill="none" stroke="#000000" stroke-width="0.5"/><path d="m 2089,1009 v -1.713 c 0.352,-0.071 0.704,-0.178 1.048,-0.321 0.344,-0.145 0.666,-0.321 0.966,-0.521 l 1.194,1.18 1.567,-1.577 -1.195,-1.18 c 0.403,-0.614 0.683,-1.299 0.825,-2.018 l 1.622,-0.01 v -2.22 l -1.637,0.01 c -0.073,-0.352 -0.178,-0.7 -0.324,-1.044 -0.145,-0.344 -0.321,-0.664 -0.523,-0.962 l 1.131,-1.136 -1.583,-1.563 -1.13,1.136 c -0.614,-0.401 -1.303,-0.681 -2.023,-0.822 l 0.009,-1.619 h -2.241 l 0.004,1.631 c -0.354,0.074 -0.705,0.18 -1.05,0.324 -0.344,0.144 -0.665,0.321 -0.964,0.52 l -1.17,-1.158 -1.567,1.579 1.168,1.157 c -0.403,0.613 -0.683,1.298 -0.825,2.017 l -1.659,0.003 v 2.222 l 1.672,-0.006 c 0.073,0.351 0.18,0.702 0.324,1.045 0.145,0.344 0.321,0.664 0.523,0.961 l -1.199,1.197 1.584,1.56 1.196,-1.193 c 0.614,0.403 1.303,0.682 2.023,0.823 l 0.001,1.699 h 2.227 z m 0.221,-3.996 c -1.789,0.75 -3.858,-0.093 -4.61,-1.874 -0.752,-1.783 0.091,-3.846 1.88,-4.596 1.788,-0.749 3.857,0.093 4.609,1.874 0.752,1.782 -0.091,3.846 -1.879,4.596 z" fill="#ffffff" stroke="#000000" stroke-width="0.5"/><path d="m 2089.221,1005.004 c -1.789,0.75 -3.858,-0.093 -4.61,-1.874 -0.752,-1.783 0.091,-3.846 1.88,-4.596 1.788,-0.749 3.857,0.093 4.609,1.874 0.752,1.782 -0.091,3.846 -1.879,4.596 z" fill="#000000" stroke="#000000" stroke-width="0.5"/></g>
<text x="2116" y="1023" text-anchor="middle" dominant-baseline="middle" font-size="12" fill="#000000">SVG-Vorschau</text>
<text x="2116" y="1037" text-anchor="middle" dominant-baseline="middle" font-size="12" fill="#000000">rendern</text>
</g>
<g><title>Compliance Agent: Prüft OMG BPMN 2.0.2 Konformität. Namespace-URIs (MODEL, DI, DC, DI), Pflicht-Attribute (id, targetNamespace), DI-Vollständigkeit (jeder FlowNode hat BPMNShape, jeder Flow hat BPMNEdge), Element-Typ-Mapping gegen OMG-Spezifikation.</title>
<rect x="2246" y="1148" width="100" height="80" rx="10" ry="10" fill="#ffffff" fill-opacity="0.95" stroke="#000000" stroke-width="2"/>
<g><path d="m 2264,1172 v -1.713 c 0.352,-0.071 0.704,-0.178 1.048,-0.321 0.344,-0.145 0.666,-0.321 0.966,-0.521 l 1.194,1.18 1.567,-1.577 -1.195,-1.18 c 0.403,-0.614 0.683,-1.299 0.825,-2.018 l 1.622,-0.01 v -2.22 l -1.637,0.01 c -0.073,-0.352 -0.178,-0.7 -0.324,-1.044 -0.145,-0.344 -0.321,-0.664 -0.523,-0.962 l 1.131,-1.136 -1.583,-1.563 -1.13,1.136 c -0.614,-0.401 -1.303,-0.681 -2.023,-0.822 l 0.009,-1.619 h -2.241 l 0.004,1.631 c -0.354,0.074 -0.705,0.18 -1.05,0.324 -0.344,0.144 -0.665,0.321 -0.964,0.52 l -1.17,-1.158 -1.567,1.579 1.168,1.157 c -0.403,0.613 -0.683,1.298 -0.825,2.017 l -1.659,0.003 v 2.222 l 1.672,-0.006 c 0.073,0.351 0.18,0.702 0.324,1.045 0.145,0.344 0.321,0.664 0.523,0.961 l -1.199,1.197 1.584,1.56 1.196,-1.193 c 0.614,0.403 1.303,0.682 2.023,0.823 l 0.001,1.699 h 2.227 z m 0.221,-3.996 c -1.789,0.75 -3.858,-0.093 -4.61,-1.874 -0.752,-1.783 0.091,-3.846 1.88,-4.596 1.788,-0.749 3.857,0.093 4.609,1.874 0.752,1.782 -0.091,3.846 -1.879,4.596 z" fill="#ffffff" stroke="#000000" stroke-width="0.5"/><path d="m 2264.221,1168.004 c -1.789,0.75 -3.858,-0.093 -4.61,-1.874 -0.752,-1.783 0.091,-3.846 1.88,-4.596 1.788,-0.749 3.857,0.093 4.609,1.874 0.752,1.782 -0.091,3.846 -1.879,4.596 z" fill="none" stroke="#000000" stroke-width="0.5"/><path d="m 2269,1176 v -1.713 c 0.352,-0.071 0.704,-0.178 1.048,-0.321 0.344,-0.145 0.666,-0.321 0.966,-0.521 l 1.194,1.18 1.567,-1.577 -1.195,-1.18 c 0.403,-0.614 0.683,-1.299 0.825,-2.018 l 1.622,-0.01 v -2.22 l -1.637,0.01 c -0.073,-0.352 -0.178,-0.7 -0.324,-1.044 -0.145,-0.344 -0.321,-0.664 -0.523,-0.962 l 1.131,-1.136 -1.583,-1.563 -1.13,1.136 c -0.614,-0.401 -1.303,-0.681 -2.023,-0.822 l 0.009,-1.619 h -2.241 l 0.004,1.631 c -0.354,0.074 -0.705,0.18 -1.05,0.324 -0.344,0.144 -0.665,0.321 -0.964,0.52 l -1.17,-1.158 -1.567,1.579 1.168,1.157 c -0.403,0.613 -0.683,1.298 -0.825,2.017 l -1.659,0.003 v 2.222 l 1.672,-0.006 c 0.073,0.351 0.18,0.702 0.324,1.045 0.145,0.344 0.321,0.664 0.523,0.961 l -1.199,1.197 1.584,1.56 1.196,-1.193 c 0.614,0.403 1.303,0.682 2.023,0.823 l 0.001,1.699 h 2.227 z m 0.221,-3.996 c -1.789,0.75 -3.858,-0.093 -4.61,-1.874 -0.752,-1.783 0.091,-3.846 1.88,-4.596 1.788,-0.749 3.857,0.093 4.609,1.874 0.752,1.782 -0.091,3.846 -1.879,4.596 z" fill="#ffffff" stroke="#000000" stroke-width="0.5"/><path d="m 2269.221,1172.004 c -1.789,0.75 -3.858,-0.093 -4.61,-1.874 -0.752,-1.783 0.091,-3.846 1.88,-4.596 1.788,-0.749 3.857,0.093 4.609,1.874 0.752,1.782 -0.091,3.846 -1.879,4.596 z" fill="#000000" stroke="#000000" stroke-width="0.5"/></g>
<text x="2296" y="1190" text-anchor="middle" dominant-baseline="middle" font-size="12" fill="#000000">OMG-Konformität</text>
<text x="2296" y="1204" text-anchor="middle" dominant-baseline="middle" font-size="12" fill="#000000">prüfen</text>
</g>
<g><title>Bündelt alle Artefakte: BPMN XML, SVG-Vorschau, Compliance-Report (errors/warnings/violations), Validierungs-Ergebnis (errors/warnings/xmlWarnings), History aller Agent-Aufrufe mit Timestamps.</title>
<rect x="490" y="814" width="100" height="80" rx="10" ry="10" fill="#ffffff" fill-opacity="0.95" stroke="#000000" stroke-width="2"/>
<g><path d="m 508,838 v -1.713 c 0.352,-0.071 0.704,-0.178 1.048,-0.321 0.344,-0.145 0.666,-0.321 0.966,-0.521 l 1.194,1.18 1.567,-1.577 -1.195,-1.18 c 0.403,-0.614 0.683,-1.299 0.825,-2.018 l 1.622,-0.01 v -2.22 l -1.637,0.01 c -0.073,-0.352 -0.178,-0.7 -0.324,-1.044 -0.145,-0.344 -0.321,-0.664 -0.523,-0.962 l 1.131,-1.136 -1.583,-1.563 -1.13,1.136 c -0.614,-0.401 -1.303,-0.681 -2.023,-0.822 l 0.009,-1.619 h -2.241 l 0.004,1.631 c -0.354,0.074 -0.705,0.18 -1.05,0.324 -0.344,0.144 -0.665,0.321 -0.964,0.52 l -1.17,-1.158 -1.567,1.579 1.168,1.157 c -0.403,0.613 -0.683,1.298 -0.825,2.017 l -1.659,0.003 v 2.222 l 1.672,-0.006 c 0.073,0.351 0.18,0.702 0.324,1.045 0.145,0.344 0.321,0.664 0.523,0.961 l -1.199,1.197 1.584,1.56 1.196,-1.193 c 0.614,0.403 1.303,0.682 2.023,0.823 l 0.001,1.699 h 2.227 z m 0.221,-3.996 c -1.789,0.75 -3.858,-0.093 -4.61,-1.874 -0.752,-1.783 0.091,-3.846 1.88,-4.596 1.788,-0.749 3.857,0.093 4.609,1.874 0.752,1.782 -0.091,3.846 -1.879,4.596 z" fill="#ffffff" stroke="#000000" stroke-width="0.5"/><path d="m 508.221,834.004 c -1.789,0.75 -3.858,-0.093 -4.61,-1.874 -0.752,-1.783 0.091,-3.846 1.88,-4.596 1.788,-0.749 3.857,0.093 4.609,1.874 0.752,1.782 -0.091,3.846 -1.879,4.596 z" fill="none" stroke="#000000" stroke-width="0.5"/><path d="m 513,842 v -1.713 c 0.352,-0.071 0.704,-0.178 1.048,-0.321 0.344,-0.145 0.666,-0.321 0.966,-0.521 l 1.194,1.18 1.567,-1.577 -1.195,-1.18 c 0.403,-0.614 0.683,-1.299 0.825,-2.018 l 1.622,-0.01 v -2.22 l -1.637,0.01 c -0.073,-0.352 -0.178,-0.7 -0.324,-1.044 -0.145,-0.344 -0.321,-0.664 -0.523,-0.962 l 1.131,-1.136 -1.583,-1.563 -1.13,1.136 c -0.614,-0.401 -1.303,-0.681 -2.023,-0.822 l 0.009,-1.619 h -2.241 l 0.004,1.631 c -0.354,0.074 -0.705,0.18 -1.05,0.324 -0.344,0.144 -0.665,0.321 -0.964,0.52 l -1.17,-1.158 -1.567,1.579 1.168,1.157 c -0.403,0.613 -0.683,1.298 -0.825,2.017 l -1.659,0.003 v 2.222 l 1.672,-0.006 c 0.073,0.351 0.18,0.702 0.324,1.045 0.145,0.344 0.321,0.664 0.523,0.961 l -1.199,1.197 1.584,1.56 1.196,-1.193 c 0.614,0.403 1.303,0.682 2.023,0.823 l 0.001,1.699 h 2.227 z m 0.221,-3.996 c -1.789,0.75 -3.858,-0.093 -4.61,-1.874 -0.752,-1.783 0.091,-3.846 1.88,-4.596 1.788,-0.749 3.857,0.093 4.609,1.874 0.752,1.782 -0.091,3.846 -1.879,4.596 z" fill="#ffffff" stroke="#000000" stroke-width="0.5"/><path d="m 513.221,838.004 c -1.789,0.75 -3.858,-0.093 -4.61,-1.874 -0.752,-1.783 0.091,-3.846 1.88,-4.596 1.788,-0.749 3.857,0.093 4.609,1.874 0.752,1.782 -0.091,3.846 -1.879,4.596 z" fill="#000000" stroke="#000000" stroke-width="0.5"/></g>
<text x="540" y="856" text-anchor="middle" dominant-baseline="middle" font-size="12" fill="#000000">Ergebnis</text>
<text x="540" y="870" text-anchor="middle" dominant-baseline="middle" font-size="12" fill="#000000">zusammenstellen</text>
</g>
<circle cx="688" cy="814" r="18" fill="#ffffff" fill-opacity="0.95" stroke="#000000" stroke-width="4"/>
<text x="688" y="852" text-anchor="middle" font-size="11" fill="#000000">Pipeline</text>
<text x="688" y="865" text-anchor="middle" font-size="11" fill="#000000">abgeschlossen</text>
</svg>